<svg width="230" height="60" viewBox="0 0 230 60" fill="none" xmlns="http://www.w3.org/2000/svg">
<path d="M0 5C0 2.23858 2.23858 0 5 0H216.154C218.915 0 221.154 2.23858 221.154 5V55C221.154 57.7614 218.915 60 216.154 60H5C2.23858 60 0 57.7614 0 55V5Z" fill="#151515"/>
<rect x="99.0769" width="130.923" height="60" rx="5" fill="#FF2D20"/>
<path d="M14.5214 42V12.6H23.1734C25.7074 12.6 27.8494 13.02 29.5994 13.86C31.3634 14.7 32.7844 15.827 33.8624 17.241C34.9404 18.641 35.7244 20.216 36.2144 21.966C36.7184 23.702 36.9704 25.48 36.9704 27.3C36.9704 28.994 36.7394 30.702 36.2774 32.424C35.8154 34.146 35.0524 35.735 33.9884 37.191C32.9384 38.633 31.5104 39.795 29.7044 40.677C27.9124 41.559 25.6794 42 23.0054 42H14.5214ZM18.7634 38.01H23.5094C25.2314 38.01 26.6664 37.695 27.8144 37.065C28.9764 36.435 29.9074 35.602 30.6074 34.566C31.3074 33.516 31.8044 32.361 32.0984 31.101C32.4064 29.827 32.5604 28.56 32.5604 27.3C32.5604 25.956 32.3994 24.647 32.0774 23.373C31.7554 22.085 31.2444 20.93 30.5444 19.908C29.8444 18.886 28.9554 18.074 27.8774 17.472C26.7994 16.856 25.4974 16.548 23.9714 16.548H18.7634V38.01ZM53.1483 42.504C51.1463 42.504 49.4173 42.028 47.9613 41.076C46.5193 40.124 45.4063 38.801 44.6223 37.107C43.8523 35.413 43.4673 33.46 43.4673 31.248C43.4673 28.896 43.8663 26.887 44.6643 25.221C45.4763 23.541 46.6033 22.26 48.0453 21.378C49.5013 20.482 51.2023 20.034 53.1483 20.034C54.8003 20.034 56.3053 20.398 57.6633 21.126C59.0353 21.84 60.1273 22.953 60.9393 24.465C61.7653 25.963 62.1783 27.888 62.1783 30.24C62.1783 30.576 62.1643 30.982 62.1363 31.458C62.1223 31.92 62.0873 32.396 62.0313 32.886H47.6883C47.8003 34.076 48.0873 35.126 48.5493 36.036C49.0253 36.932 49.6553 37.632 50.4393 38.136C51.2233 38.64 52.1473 38.892 53.2113 38.892C54.1493 38.892 55.0033 38.731 55.7733 38.409C56.5433 38.073 57.2643 37.555 57.9363 36.855L60.3723 39.48C59.5323 40.362 58.5033 41.09 57.2853 41.664C56.0673 42.224 54.6883 42.504 53.1483 42.504ZM47.6673 29.4H58.0203C57.9923 28.266 57.7823 27.272 57.3903 26.418C57.0123 25.55 56.4593 24.871 55.7313 24.381C55.0173 23.891 54.1423 23.646 53.1063 23.646C51.6643 23.646 50.4253 24.108 49.3893 25.032C48.3533 25.956 47.7793 27.412 47.6673 29.4ZM74.5847 42L66.7307 20.538H71.0147L75.8867 34.335C76.0127 34.671 76.1317 35.014 76.2437 35.364C76.3557 35.7 76.4607 36.05 76.5587 36.414C76.6567 36.05 76.7547 35.7 76.8527 35.364C76.9647 35.014 77.0837 34.671 77.2097 34.335L82.0187 20.538H86.2607L78.4067 42H74.5847ZM105.29 42V20.538H109.469V23.184C109.931 22.176 110.589 21.399 111.443 20.853C112.297 20.307 113.27 20.034 114.362 20.034C115.734 20.034 116.896 20.454 117.848 21.294L117.239 25.179C116.749 24.815 116.245 24.549 115.727 24.381C115.209 24.213 114.649 24.129 114.047 24.129C113.109 24.129 112.297 24.374 111.611 24.864C110.939 25.34 110.414 26.019 110.036 26.901C109.658 27.783 109.469 28.826 109.469 30.03V42H105.29ZM123.961 42V20.538H128.14V42H123.961ZM126.04 17.031C125.34 17.031 124.738 16.786 124.234 16.296C123.744 15.792 123.499 15.19 123.499 14.49C123.499 13.776 123.744 13.167 124.234 12.663C124.724 12.159 125.326 11.907 126.04 11.907C126.768 11.907 127.377 12.159 127.867 12.663C128.357 13.167 128.602 13.776 128.602 14.49C128.602 15.204 128.357 15.806 127.867 16.296C127.377 16.786 126.768 17.031 126.04 17.031ZM143.351 42.504C141.013 42.504 139.172 41.867 137.828 40.593C136.498 39.305 135.833 37.555 135.833 35.343C135.833 33.915 136.169 32.669 136.841 31.605C137.513 30.541 138.458 29.722 139.676 29.148C140.908 28.56 142.35 28.266 144.002 28.266C145.01 28.266 145.962 28.371 146.858 28.581C147.768 28.791 148.601 29.106 149.357 29.526V28.077C149.357 26.565 148.993 25.452 148.265 24.738C147.537 24.01 146.424 23.646 144.926 23.646C143.89 23.646 142.819 23.835 141.713 24.213C140.621 24.591 139.564 25.123 138.542 25.809L137.324 22.386C138.458 21.644 139.732 21.07 141.146 20.664C142.574 20.244 143.995 20.034 145.409 20.034C148.069 20.034 150.057 20.692 151.373 22.008C152.703 23.324 153.368 25.291 153.368 27.909V42H149.357V40.11C148.559 40.88 147.642 41.475 146.606 41.895C145.57 42.301 144.485 42.504 143.351 42.504ZM144.107 38.892C145.059 38.892 145.99 38.675 146.9 38.241C147.824 37.793 148.643 37.17 149.357 36.372V33.054C148.685 32.662 147.922 32.354 147.068 32.13C146.214 31.906 145.395 31.794 144.611 31.794C143.127 31.794 141.958 32.116 141.104 32.76C140.25 33.39 139.823 34.258 139.823 35.364C139.823 36.456 140.201 37.317 140.957 37.947C141.713 38.577 142.763 38.892 144.107 38.892ZM160.871 42V38.892L171.98 24.255H161.69V20.538H177.272V23.562L166.142 38.262H177.23V42H160.871ZM193.046 42.504C190.484 42.504 188.559 41.734 187.271 40.194C185.983 38.654 185.339 36.344 185.339 33.264V20.538H189.518V33.075C189.518 34.895 189.882 36.267 190.61 37.191C191.352 38.101 192.444 38.556 193.886 38.556C195.454 38.556 196.623 38.108 197.393 37.212C198.177 36.302 198.569 34.951 198.569 33.159V20.538H202.748V42H198.569V39.963C197.897 40.831 197.113 41.475 196.217 41.895C195.321 42.301 194.264 42.504 193.046 42.504ZM211.894 42V13.608L216.073 11.676V42H211.894Z" fill="white"/>
</svg>
