<svg width="224" height="72" viewBox="0 0 224 72" fill="none" xmlns="http://www.w3.org/2000/svg">
<g clip-path="url(#clip0_971_513)">
<path opacity="0.188" fill-rule="evenodd" clip-rule="evenodd" d="M44.9033 11.757C41.6845 11.331 38.4578 11.2676 35.2231 11.5669C36.6695 11.297 38.1562 11.1703 39.6836 11.1866C41.4765 11.1381 43.2163 11.3283 44.9033 11.757Z" fill="#417972"/>
<path opacity="0.999" fill-rule="evenodd" clip-rule="evenodd" d="M6.37256 8.90491C6.4991 8.90491 6.62563 8.90491 6.75217 8.90491C7.75154 11.6295 9.71287 13.1823 12.6362 13.5634C14.7778 13.8581 16.929 13.9215 19.0896 13.7535C20.7984 13.5225 22.5067 13.3007 24.2144 13.088C24.135 13.2252 24.0086 13.3203 23.8348 13.3732C22.6743 13.4707 21.5355 13.6609 20.4183 13.9436C20.9244 14.007 21.4305 14.0704 21.9367 14.1338C21.7596 14.4395 21.8861 14.5979 22.3163 14.6091C22.4951 14.5886 22.6533 14.5252 22.7908 14.419C23.7532 14.7227 24.7339 14.9763 25.7328 15.1796C26.0103 14.9949 26.2633 15.0583 26.4921 15.3697C26.6234 15.2698 26.7183 15.1431 26.7768 14.9894C26.8504 15.1659 26.977 15.2926 27.1564 15.3697C27.5973 15.3106 28.0401 15.2472 28.485 15.1796C28.5587 15.356 28.6853 15.4828 28.8647 15.5598C29.1116 15.4723 29.3646 15.409 29.6239 15.3697C30.3785 15.6555 31.1695 15.8456 31.9965 15.9401C32.2142 15.8797 32.3725 15.7529 32.471 15.5598C33.1691 16.0804 33.9598 16.2389 34.8436 16.0352C34.3825 15.9494 34.3508 15.791 34.7487 15.5598C35.1404 15.7674 35.5517 15.7991 35.9824 15.6549C35.8558 15.5915 35.7294 15.5281 35.6028 15.4648C35.8243 15.3697 35.9824 15.2113 36.0773 14.9894C36.2039 15.4965 36.3303 15.4965 36.4569 14.9894C36.935 15.5288 37.5045 15.6556 38.1652 15.3697C40.0885 15.7379 42.0498 16.0548 44.0492 16.3204C44.9485 16.3462 45.866 16.2829 46.8014 16.1303C47.6946 16.4074 48.5804 16.661 49.4587 16.8908C47.449 17.3015 45.3928 17.555 43.29 17.6514C39.8499 17.2138 36.4017 16.7067 32.9455 16.1303C32.7185 16.196 32.7185 16.2911 32.9455 16.4155C32.459 16.59 32.0477 16.495 31.7118 16.1303C31.5969 16.507 31.4071 16.5704 31.1423 16.3204C30.598 16.6865 30.0918 16.6865 29.6239 16.3204C29.4973 16.8274 29.3709 16.8274 29.2443 16.3204C28.7817 17.0188 28.2755 17.0188 27.7258 16.3204C27.6341 16.5007 27.6026 16.6908 27.6309 16.8908C27.2357 16.8961 26.8876 16.7694 26.587 16.5105C26.1254 16.6613 25.6824 16.7247 25.2583 16.7007C25.1902 16.1218 25.0636 16.0585 24.8787 16.5105C24.7521 16.257 24.6257 16.257 24.4991 16.5105C24.3725 16.0035 24.2461 16.0035 24.1195 16.5105C23.8665 16.5105 23.6133 16.5105 23.3603 16.5105C22.7381 16.3481 22.1054 16.158 21.4622 15.9401C21.009 16.0574 20.5661 16.1208 20.1335 16.1303C19.9541 16.0532 19.8276 15.9264 19.7539 15.75C19.6937 16.0924 19.5672 16.1558 19.3743 15.9401C17.4824 16.1415 15.6793 16.4584 13.9648 16.8908C9.42154 16.1425 6.89077 13.4805 6.37256 8.90491Z" fill="#3D876B"/>
<path fill-rule="evenodd" clip-rule="evenodd" d="M44.9034 11.7571C46.9293 11.9807 48.7641 12.6779 50.4078 13.8486C50.3526 14.0671 50.1945 14.1939 49.9333 14.2289C49.3588 14.1766 48.7577 14.1449 48.1302 14.1338C48.0353 14.0387 47.9403 13.9437 47.8454 13.8486C47.4586 14.1475 47.0158 14.3377 46.5168 14.419C46.1583 14.3054 45.8103 14.2421 45.4729 14.2289C45.2223 14.5655 44.9376 14.6288 44.6187 14.419C44.1125 14.5458 43.6065 14.6725 43.1003 14.7993C42.0698 14.5826 41.0259 14.5826 39.9685 14.7993C39.6726 14.6902 39.3879 14.5635 39.1143 14.419C38.849 14.5238 38.5958 14.5872 38.3551 14.6092C38.1021 14.1021 37.8489 14.1021 37.5959 14.6092C37.2559 14.2265 37.0027 14.2265 36.8367 14.6092C36.7735 14.4824 36.7101 14.3557 36.6469 14.2289C36.2162 14.3057 35.7417 14.3374 35.2233 14.324C35.5221 14.2568 35.8385 14.1301 36.1723 13.9437C35.9901 13.6738 35.832 13.3886 35.6978 13.088C34.7792 12.9018 33.7035 12.9018 32.4711 13.088C32.2198 12.8256 31.9668 12.7622 31.7119 12.8979C31.2474 12.7257 30.7729 12.5673 30.2883 12.4225C30.4622 12.3696 30.5886 12.2745 30.6679 12.1373C32.172 11.8406 33.6904 11.6505 35.2233 11.5669C38.458 11.2677 41.6847 11.3311 44.9034 11.7571Z" fill="#3A956A"/>
<path fill-rule="evenodd" clip-rule="evenodd" d="M30.6678 12.1373C30.5884 12.2745 30.462 12.3696 30.2882 12.4225C30.7727 12.5673 31.2473 12.7257 31.7117 12.8979C31.9666 12.7622 32.2196 12.8256 32.4709 13.088C33.7034 12.9018 34.779 12.9018 35.6977 13.088C35.8318 13.3886 35.99 13.6738 36.1722 13.9437C35.8383 14.1301 35.5219 14.2568 35.2231 14.3239C35.7415 14.3374 36.216 14.3057 36.6467 14.2289C36.7099 14.3556 36.7733 14.4824 36.8365 14.6092C37.0026 14.2265 37.2558 14.2265 37.5957 14.6092C37.8487 14.1021 38.1019 14.1021 38.3549 14.6092C38.5956 14.5871 38.8488 14.5238 39.1142 14.419C39.3877 14.5635 39.6724 14.6902 39.9683 14.7993C41.0257 14.5826 42.0697 14.5826 43.1001 14.7993C43.6063 14.6725 44.1124 14.5458 44.6186 14.419C44.9374 14.6288 45.2222 14.5654 45.4727 14.2289C45.8102 14.2421 46.1581 14.3054 46.5166 14.419C47.0156 14.3377 47.4585 14.1475 47.8453 13.8486C47.9402 13.9437 48.0351 14.0387 48.13 14.1338C48.7575 14.1449 49.3586 14.1766 49.9332 14.2289C50.1943 14.1939 50.3524 14.0671 50.4077 13.8486C51.4199 14.4196 52.2425 15.1802 52.8752 16.1303C52.8826 16.3362 52.946 16.5264 53.065 16.7007C51.7881 16.781 50.5861 16.8444 49.4586 16.8909C48.5804 16.661 47.6946 16.4075 46.8013 16.1303C45.866 16.2829 44.9485 16.3463 44.0491 16.3204C42.0497 16.0548 40.0885 15.7379 38.1651 15.3697C37.5044 15.6556 36.935 15.5289 36.4569 14.9894C36.3303 15.4965 36.2039 15.4965 36.0773 14.9894C35.9824 15.2113 35.8243 15.3697 35.6027 15.4648C35.7294 15.5282 35.8558 15.5916 35.9824 15.6549C35.5517 15.7991 35.1404 15.7674 34.7486 15.5599C34.3508 15.791 34.3825 15.9494 34.8435 16.0352C33.9598 16.2389 33.169 16.0804 32.4709 15.5599C32.3724 15.753 32.2141 15.8797 31.9964 15.9401C31.1694 15.8456 30.3785 15.6555 29.6238 15.3697C29.3646 15.409 29.1115 15.4724 28.8646 15.5599C28.6852 15.4828 28.5586 15.356 28.485 15.1796C28.0401 15.2473 27.5973 15.3106 27.1564 15.3697C26.977 15.2926 26.8504 15.1659 26.7767 14.9894C26.7183 15.1431 26.6234 15.2698 26.492 15.3697C26.2633 15.0583 26.0103 14.995 25.7328 15.1796C24.7338 14.9763 23.7531 14.7228 22.7908 14.419C22.6532 14.5252 22.4951 14.5886 22.3163 14.6092C21.8861 14.5979 21.7595 14.4395 21.9367 14.1338C21.4305 14.0704 20.9244 14.007 20.4182 13.9437C21.5354 13.6609 22.6743 13.4708 23.8347 13.3732C24.0086 13.3203 24.135 13.2252 24.2143 13.088C26.3531 12.6887 28.5042 12.3718 30.6678 12.1373Z" fill="#3A916B"/>
<path opacity="0.718" fill-rule="evenodd" clip-rule="evenodd" d="M219.905 14.6092C219.905 15.4331 219.905 16.2571 219.905 17.081C218.605 18.74 217.054 18.9935 215.255 17.8416C214.313 16.3473 214.408 14.9212 215.539 13.5634C217.322 12.6741 218.776 13.0226 219.905 14.6092ZM216.109 14.2289C217.741 13.4874 218.817 13.9944 219.336 15.75C219.094 17.4751 218.652 17.6018 218.007 16.1303C218.571 15.4324 218.506 14.8303 217.817 14.324C217.251 14.2293 216.682 14.1976 216.109 14.2289ZM216.109 14.2289C216.141 15.3082 216.109 16.3857 216.014 17.4613C214.864 16.3334 214.894 15.256 216.109 14.2289ZM216.678 14.9895C217.944 15.1796 217.944 15.3698 216.678 15.5599C216.678 15.3698 216.678 15.1796 216.678 14.9895ZM216.678 16.1303C216.819 16.1054 216.946 16.1371 217.058 16.2254C217.352 16.7553 217.732 17.1989 218.197 17.5564C217.576 17.922 216.944 17.922 216.299 17.5564C216.638 17.1559 216.766 16.6806 216.678 16.1303Z" fill="#292626"/>
<path opacity="0.998" fill-rule="evenodd" clip-rule="evenodd" d="M49.4587 16.8908C50.5861 16.8444 51.7882 16.781 53.065 16.7007C52.946 16.5264 52.8826 16.3362 52.8752 16.1303C54.0325 17.2428 54.8549 18.5738 55.3427 20.1232C54.4516 20.0008 53.5659 19.9375 52.6854 19.9331C50.5827 18.2492 48.1786 17.5837 45.4728 17.9366C44.2918 18.0804 43.1529 18.3657 42.0562 18.7923C41.2089 18.6229 40.3233 18.3693 39.3989 18.0317C36.8626 18.3419 34.3319 18.2152 31.8067 17.6514C30.6103 17.7223 29.3134 17.8491 27.9156 18.0317C25.9008 17.9298 23.9079 17.7079 21.9367 17.3662C22.6452 17.1814 22.5819 17.0864 21.7469 17.081C21.4536 17.083 21.2006 17.1464 20.9877 17.2711C19.0253 17.3028 17.064 17.2711 15.1037 17.1761C14.6846 17.1398 14.305 17.0447 13.9648 16.8908C15.6793 16.4585 17.4824 16.1416 19.3743 15.9401C19.5672 16.1558 19.6937 16.0924 19.7539 15.75C19.8276 15.9265 19.9541 16.0532 20.1336 16.1303C20.5661 16.1208 21.009 16.0574 21.4622 15.9401C22.1055 16.158 22.7381 16.3482 23.3603 16.5106C23.6133 16.5106 23.8665 16.5106 24.1195 16.5106C24.2461 16.0035 24.3725 16.0035 24.4991 16.5106C24.6257 16.257 24.7521 16.257 24.8787 16.5106C25.0636 16.0585 25.1902 16.1219 25.2583 16.7007C25.6824 16.7247 26.1254 16.6613 26.587 16.5106C26.8876 16.7694 27.2357 16.8962 27.6309 16.8908C27.6026 16.6908 27.6342 16.5007 27.7258 16.3204C28.2755 17.0188 28.7817 17.0188 29.2443 16.3204C29.3709 16.8275 29.4973 16.8275 29.6239 16.3204C30.0918 16.6865 30.598 16.6865 31.1423 16.3204C31.4071 16.5704 31.5969 16.507 31.7118 16.1303C32.0477 16.495 32.459 16.5901 32.9455 16.4155C32.7185 16.2911 32.7185 16.196 32.9455 16.1303C36.4017 16.7067 39.8499 17.2138 43.29 17.6514C45.3928 17.555 47.449 17.3015 49.4587 16.8908Z" fill="#3C8673"/>
<path fill-rule="evenodd" clip-rule="evenodd" d="M20.9878 17.2711C21.2006 17.1464 21.4537 17.083 21.747 17.0809C22.582 17.0863 22.6452 17.1814 21.9368 17.3661C23.9079 17.7079 25.9009 17.9297 27.9157 18.0316C29.3134 17.849 30.6104 17.7223 31.8067 17.6514C34.3319 18.2151 36.8626 18.3419 39.399 18.0316C40.3234 18.3693 41.209 18.6228 42.0563 18.7922C40.9226 19.2964 39.7837 19.8034 38.6398 20.3133C38.8596 20.0377 38.7647 19.8475 38.3551 19.7429C38.0387 19.8063 37.7224 19.8697 37.406 19.933C35.6211 19.6844 33.8179 19.5259 31.9965 19.4577C31.5216 19.1092 30.9839 18.9508 30.3832 18.9823C29.3681 19.2075 28.3557 19.3977 27.3463 19.5528C24.7193 19.2584 22.0938 18.9098 19.4693 18.507C19.0913 18.436 18.775 18.2775 18.5203 18.0316C19.511 17.9021 20.3335 17.6485 20.9878 17.2711Z" fill="#3F7E75"/>
<path opacity="0.997" fill-rule="evenodd" clip-rule="evenodd" d="M18.5202 18.0317C18.7749 18.2776 19.0912 18.436 19.4692 18.5071C22.0936 18.9099 24.7192 19.2585 27.3462 19.5528C28.3556 19.3977 29.368 19.2076 30.3831 18.9824C30.9838 18.9509 31.5215 19.1093 31.9964 19.4578C33.8178 19.526 35.621 19.6844 37.4059 19.9331C37.7223 19.8697 38.0385 19.8064 38.3549 19.743C38.7646 19.8476 38.8595 20.0377 38.6397 20.3134C38.1346 20.8843 37.5018 21.2645 36.7416 21.4542C37.0064 21.236 36.9747 21.0459 36.6467 20.8838C36.2039 20.9472 35.7609 21.0106 35.318 21.074C35.0667 20.8115 34.8137 20.7482 34.5588 20.8838C33.5914 20.7842 32.6423 20.5941 31.7117 20.3134C31.5741 20.4196 31.416 20.483 31.2372 20.5035C29.4908 20.3374 27.7508 20.1473 26.0175 19.9331C24.5365 20.2143 23.0812 20.1509 21.652 19.743C20.956 19.8064 20.2601 19.8697 19.5641 19.9331C19.1609 19.7948 18.7497 19.6681 18.3303 19.5528C17.3265 19.7135 16.3141 19.8403 15.2934 19.9331C12.5057 19.6953 9.72187 19.4417 6.94194 19.1726C5.76556 17.956 5.10124 16.4983 4.94897 14.7993C6.10704 16.8533 7.84692 18.0892 10.1687 18.5071C12.9885 18.9311 15.7724 18.7727 18.5202 18.0317Z" fill="#487072"/>
<path fill-rule="evenodd" clip-rule="evenodd" d="M6.94189 19.1725C9.72182 19.4417 12.5056 19.6952 15.2934 19.933C16.3141 19.8402 17.3264 19.7135 18.3303 19.5528C18.7497 19.668 19.1609 19.7948 19.564 19.933C20.26 19.8697 20.9559 19.8063 21.6519 19.7429C23.0812 20.1509 24.5364 20.2143 26.0175 19.933C27.7508 20.1472 29.4907 20.3373 31.2371 20.5035C31.4159 20.4829 31.5741 20.4195 31.7117 20.3133C32.6423 20.594 33.5913 20.7842 34.5588 20.8838C34.8137 20.7481 35.0667 20.8115 35.318 21.0739C35.7608 21.0105 36.2038 20.9471 36.6466 20.8838C36.9746 21.0458 37.0063 21.236 36.7415 21.4542C36.5969 21.7893 36.3437 21.9794 35.9823 22.0246C35.7067 21.8721 35.3905 21.7771 35.0333 21.7394C32.5022 21.5847 29.9715 21.4262 27.441 21.264C26.4531 21.5222 25.4723 21.4588 24.499 21.0739C23.8349 21.3338 23.2021 21.2705 22.6009 20.8838C22.1723 21.3657 21.7611 21.4291 21.3672 21.0739C21.2358 21.1738 21.1409 21.3005 21.0825 21.4542C20.8373 21.2087 20.6159 21.2087 20.4182 21.4542C20.2284 21.4542 20.0386 21.4542 19.8487 21.4542C19.8698 21.3368 19.933 21.2417 20.0386 21.169C19.6307 21.0589 19.2195 20.9638 18.8048 20.8838C18.207 20.8409 17.6376 20.9043 17.0966 21.0739C16.7169 20.9471 16.3373 20.8204 15.9577 20.6936C15.2402 20.6693 14.5126 20.6693 13.7749 20.6936C12.0047 20.2987 10.2332 20.1719 8.46035 20.3133C7.81675 20.1176 7.31061 19.7373 6.94189 19.1725Z" fill="#4C6978"/>
<path opacity="0.992" fill-rule="evenodd" clip-rule="evenodd" d="M52.6853 19.9331C53.5658 19.9375 54.4515 20.0009 55.3426 20.1232C56.0316 21.5599 56.5376 23.081 56.861 24.6866C56.8573 24.9198 56.794 25.1099 56.6712 25.257C56.5446 25.257 56.4814 25.1937 56.4814 25.0669C56.4814 24.9401 56.4182 24.8768 56.2916 24.8768C55.3933 23.0232 54.191 21.3753 52.6853 19.9331Z" fill="#407C85"/>
<path fill-rule="evenodd" clip-rule="evenodd" d="M19.8488 21.4542C16.6227 22.2459 13.396 22.2142 10.1687 21.3591C9.47009 21.1933 8.90067 20.8447 8.46045 20.3134C10.2333 20.172 12.0048 20.2987 13.775 20.6936C14.5127 20.6694 15.2403 20.6694 15.9578 20.6936C16.3374 20.8204 16.717 20.9472 17.0967 21.0739C17.6377 20.9043 18.2071 20.8409 18.8049 20.8838C19.2196 20.9639 19.6308 21.0589 20.0387 21.169C19.9331 21.2417 19.8699 21.3368 19.8488 21.4542Z" fill="#575973"/>
<path opacity="0.964" fill-rule="evenodd" clip-rule="evenodd" d="M75.8418 20.5035C80.7768 20.5035 85.7118 20.5035 90.6468 20.5035C90.5989 21.4578 90.504 22.4085 90.3621 23.3557C90.3036 23.5093 90.2087 23.6361 90.0773 23.7359C89.8315 23.6222 89.5785 23.5271 89.3181 23.4507C88.1176 23.3557 86.9155 23.3241 85.7118 23.3557C84.8757 27.1122 83.9584 30.8516 82.9596 34.574C82.8649 35.3319 82.8332 36.0924 82.8647 36.8557C80.5229 36.8874 78.182 36.8557 75.8418 36.7606C75.7551 36.6819 75.6917 36.5868 75.652 36.4754C75.9848 35.9991 76.2695 35.4922 76.5062 34.9542C77.4582 31.0759 78.439 27.2097 79.4482 23.3557C77.9049 23.2634 76.3864 23.3901 74.8928 23.7359C74.6814 23.5034 74.6497 23.2499 74.7979 22.9754C75.2546 22.1885 75.6025 21.3645 75.8418 20.5035Z" fill="#2A2928"/>
<path opacity="0.963" fill-rule="evenodd" clip-rule="evenodd" d="M94.6327 20.5035C99.3778 20.5035 104.123 20.5035 108.868 20.5035C108.802 21.6669 108.612 22.8077 108.299 23.9261C107.941 23.7151 107.561 23.5567 107.16 23.4507C105.026 23.2948 102.906 23.3265 100.801 23.5458C100.427 24.602 100.142 25.6794 99.9473 26.7782C102.294 27.0278 104.635 27.0278 106.97 26.7782C107.028 28.0087 106.807 29.2129 106.306 30.3909C106.103 30.2595 105.882 30.1644 105.641 30.1057C103.49 29.9788 101.339 29.9788 99.188 30.1057C98.7382 31.3062 98.4218 32.5421 98.239 33.8134C100.518 33.8452 102.795 33.8134 105.072 33.7183C105.437 33.4774 105.753 33.4774 106.021 33.7183C105.526 34.7101 105.083 35.7243 104.692 36.7606C100.011 36.8557 95.3291 36.8874 90.6467 36.8557C91.2059 35.5722 91.6804 34.2412 92.0703 32.8627C92.9068 29.1015 93.8243 25.3621 94.8225 21.6444C94.6615 21.2815 94.5981 20.9012 94.6327 20.5035Z" fill="#2A2928"/>
<path opacity="0.954" fill-rule="evenodd" clip-rule="evenodd" d="M112.095 20.5035C114.689 20.5035 117.283 20.5035 119.877 20.5035C119.732 21.0057 119.7 21.5128 119.782 22.0247C120.239 23.1309 120.746 24.2084 121.3 25.2571C122.686 24.1051 124.046 22.9326 125.381 21.7394C125.681 21.3919 125.935 21.0116 126.141 20.5986C127.817 20.4148 129.462 20.4782 131.075 20.7887C128.26 23.1021 125.444 25.4155 122.629 27.7289C122.502 27.9824 122.502 28.236 122.629 28.4894C123.932 31.371 125.355 34.1598 126.9 36.8556C124.305 36.8874 121.711 36.8556 119.118 36.7606C119.032 35.1079 118.494 33.6183 117.504 32.2923C116.342 33.1395 115.235 34.0585 114.183 35.0493C113.632 35.5051 113.189 36.0437 112.854 36.6655C111.087 36.8553 109.315 36.9188 107.539 36.8556C107.498 36.6322 107.561 36.4421 107.729 36.2852C110.809 34.2752 113.657 31.9936 116.271 29.4402C115.037 26.4291 113.581 23.5453 111.905 20.7887C112.011 20.716 112.074 20.6209 112.095 20.5035Z" fill="#2A2928"/>
<path opacity="0.962" fill-rule="evenodd" clip-rule="evenodd" d="M136.2 20.5035C139.87 20.5035 143.54 20.5035 147.209 20.5035C147.205 21.6839 147.015 22.8247 146.64 23.9261C145.327 23.4505 143.967 23.2603 142.559 23.3557C141.642 23.3873 140.724 23.419 139.807 23.4507C139.46 23.5027 139.175 23.6612 138.953 23.9261C137.949 27.0626 137.126 30.2315 136.485 33.4331C136.58 33.5282 136.675 33.6233 136.77 33.7183C138.921 33.8452 141.072 33.8452 143.223 33.7183C143.606 33.6328 143.954 33.4744 144.267 33.243C144.107 34.4869 143.696 35.6593 143.033 36.7606C139.422 36.9268 135.815 36.8634 132.214 36.5704C130.496 35.9215 129.831 34.6856 130.222 32.8627C131.074 29.6375 131.896 26.4051 132.689 23.1655C133.47 21.7462 134.64 20.8589 136.2 20.5035Z" fill="#2A2928"/>
<path opacity="0.969" fill-rule="evenodd" clip-rule="evenodd" d="M154.232 20.5036C157.586 20.4719 160.939 20.5036 164.292 20.5986C166.591 21.0017 167.572 22.3644 167.234 24.6867C166.468 28.079 165.582 31.438 164.576 34.7641C163.629 36.0896 162.332 36.7551 160.685 36.7606C157.073 36.9329 153.466 36.8696 149.866 36.5705C148.588 35.9653 147.892 34.951 147.779 33.5282C148.681 29.9431 149.599 26.3622 150.531 22.7853C151.468 21.5091 152.702 20.7486 154.232 20.5036ZM157.459 23.3557C158.615 23.2871 159.754 23.3822 160.875 23.6409C160.986 23.8106 161.049 24.0008 161.065 24.2113C160.33 27.4332 159.444 30.6021 158.408 33.7184C157.079 33.8452 155.75 33.8452 154.422 33.7184C154.295 33.5915 154.169 33.4649 154.042 33.3381C154.84 30.6054 155.568 27.8484 156.225 25.067C156.369 24.2588 156.781 23.6884 157.459 23.3557Z" fill="#2A2928"/>
<path opacity="0.96" fill-rule="evenodd" clip-rule="evenodd" d="M172.643 20.5036C175.364 20.5036 178.084 20.5036 180.805 20.5036C180.934 23.2361 181.156 25.9615 181.469 28.6796C182.993 25.9766 184.543 23.2829 186.119 20.5986C188.966 20.5036 191.813 20.4719 194.661 20.5036C194.253 21.575 193.843 22.6525 193.427 23.736C192.524 27.7163 191.544 31.6776 190.485 35.6198C190.595 36.0261 190.658 36.4381 190.675 36.8557C188.271 36.8557 185.866 36.8557 183.462 36.8557C183.754 35.9531 184.102 35.0659 184.506 34.1937C185.109 31.7152 185.742 29.2434 186.404 26.7782C186.531 26.4613 186.531 26.1444 186.404 25.8275C184.345 29.4463 182.289 33.059 180.235 36.6655C178.722 36.8553 177.204 36.9186 175.68 36.8557C175.439 32.9873 175.154 29.1209 174.826 25.2571C174.002 28.7506 173.147 32.2366 172.264 35.7148C172.425 36.0778 172.488 36.4581 172.453 36.8557C171.188 36.8557 169.923 36.8557 168.657 36.8557C169.065 35.7842 169.476 34.7067 169.891 33.6233C170.691 29.8488 171.64 26.1094 172.738 22.405C172.812 21.7682 172.78 21.1344 172.643 20.5036Z" fill="#2A2928"/>
<path opacity="0.967" fill-rule="evenodd" clip-rule="evenodd" d="M201.684 20.5036C205.78 20.4414 209.861 20.5048 213.926 20.6937C213.985 21.8642 213.827 23.005 213.452 24.1162C212.922 23.7878 212.353 23.5659 211.743 23.4507C209.528 23.324 207.315 23.324 205.1 23.4507C204.472 23.7486 204.155 24.2556 204.151 24.9719C204.199 25.224 204.326 25.4141 204.531 25.5423C206.746 25.6057 208.959 25.6691 211.174 25.7324C212.227 26.442 212.575 27.4244 212.218 28.6796C211.789 30.7274 211.284 32.7555 210.699 34.7641C210.179 35.6118 209.452 36.2139 208.517 36.5705C204.157 36.8682 199.791 36.9317 195.42 36.7606C195.321 36.6539 195.257 36.5271 195.23 36.3803C195.386 35.3382 195.511 34.2924 195.61 33.243C196.043 33.2635 196.422 33.4219 196.749 33.7183C199.343 33.8452 201.936 33.8452 204.531 33.7183C205.127 33.0956 205.189 32.4617 204.721 31.8169C202.367 31.8055 200.025 31.6787 197.698 31.4367C197.331 31.0073 197.047 30.532 196.844 30.0106C197.087 27.3259 197.719 24.7273 198.742 22.2148C199.615 21.4145 200.596 20.844 201.684 20.5036Z" fill="#2A2928"/>
<path fill-rule="evenodd" clip-rule="evenodd" d="M35.9824 22.0246C35.3271 22.5759 34.6313 23.0829 33.8945 23.5458C33.6187 23.2938 33.6821 23.1354 34.0843 23.0704C33.5917 23.0275 33.1172 22.9324 32.6607 22.7852C31.5563 22.7929 30.3859 22.7929 29.1493 22.7852C27.2915 22.6002 25.4251 22.2833 23.55 21.8345C23.1072 21.8979 22.6643 21.9613 22.2214 22.0246C21.6006 21.9045 20.9996 21.7777 20.4182 21.6444C20.4182 21.581 20.4182 21.5176 20.4182 21.4542C20.6159 21.2087 20.8374 21.2087 21.0825 21.4542C21.1409 21.3006 21.2358 21.1738 21.3672 21.0739C21.7611 21.4292 22.1723 21.3658 22.601 20.8838C23.2021 21.2705 23.8349 21.3339 24.4991 21.0739C25.4724 21.4589 26.4531 21.5223 27.4411 21.2641C29.9716 21.4262 32.5023 21.5847 35.0333 21.7394C35.3905 21.7771 35.7068 21.8722 35.9824 22.0246Z" fill="#4F6685"/>
<path fill-rule="evenodd" clip-rule="evenodd" d="M19.8489 21.8345C19.8636 22.0721 19.9901 22.2306 20.2285 22.3098C22.4878 22.6946 24.7021 23.1066 26.8718 23.5457C25.284 23.6651 23.7024 23.7285 22.1266 23.7359C20.5317 23.6095 18.8868 23.5144 17.1916 23.4507C17.0651 23.3873 16.9386 23.3239 16.812 23.2605C17.2348 23.0816 17.6144 22.8598 17.9509 22.595C18.5697 22.3499 19.2024 22.0964 19.8489 21.8345Z" fill="#5E5284"/>
<path opacity="0.993" fill-rule="evenodd" clip-rule="evenodd" d="M56.2919 24.8767C56.4185 24.8767 56.4817 24.9401 56.4817 25.0669C56.4817 25.1937 56.5449 25.257 56.6715 25.257C57.3876 26.6817 57.1346 26.7768 55.9122 25.5422C54.3695 24.6804 52.7246 24.3635 50.9773 24.5915C47.5628 25.6041 44.3995 27.1252 41.4869 29.1549C42.454 28.9697 43.403 28.6845 44.334 28.2993C44.4134 28.4366 44.5398 28.5316 44.7136 28.5845C40.8543 30.676 36.9948 32.7676 33.1354 34.8591C33.5154 35.0529 33.895 35.2113 34.2743 35.3345C32.2971 35.2813 30.399 35.2813 28.5801 35.3345C32.1513 32.5514 35.7576 29.7944 39.3991 27.0634C41.8859 25.3104 44.5432 23.8527 47.3709 22.6901C50.8366 21.5755 53.8103 22.3044 56.2919 24.8767Z" fill="#B61E49"/>
<path fill-rule="evenodd" clip-rule="evenodd" d="M20.4183 21.6444C20.9997 21.7778 21.6007 21.9045 22.2215 22.0247C22.6643 21.9613 23.1073 21.8979 23.5501 21.8346C25.4252 22.2833 27.2916 22.6002 29.1494 22.7853C30.386 22.7929 31.5563 22.7929 32.6608 22.7853C33.1173 22.9325 33.5918 23.0276 34.0844 23.0705C33.6822 23.1355 33.6188 23.2939 33.8946 23.5458C33.5045 23.9365 33.0617 24.2534 32.5659 24.4965C32.3114 24.1885 31.9635 23.9984 31.522 23.9261C31.4588 23.9895 31.3954 24.0529 31.3322 24.1162C29.839 23.7346 28.352 23.5444 26.8717 23.5458C24.702 23.1067 22.4877 22.6947 20.2285 22.3099C19.9901 22.2306 19.8636 22.0722 19.8489 21.8346C20.018 21.7186 20.2078 21.6552 20.4183 21.6444Z" fill="#565D8D"/>
<path opacity="0.997" fill-rule="evenodd" clip-rule="evenodd" d="M15.1036 23.5458C15.4707 23.7891 15.8187 23.9159 16.1475 23.926C16.2423 24.8111 16.2739 25.6984 16.2424 26.588C13.6862 27.1631 11.1554 27.068 8.65015 26.3028C6.22908 25.2136 4.74225 23.4073 4.1897 20.8838C5.36852 22.4715 6.9186 23.4539 8.83996 23.831C9.47399 23.9172 10.1067 24.0123 10.738 24.1162C12.1923 23.9007 13.6475 23.7106 15.1036 23.5458Z" fill="#6E3C7D"/>
<path fill-rule="evenodd" clip-rule="evenodd" d="M17.9509 22.5951C17.6144 22.8598 17.2348 23.0817 16.812 23.2606C16.9386 23.324 17.0651 23.3874 17.1916 23.4507C18.8868 23.5145 20.5318 23.6096 22.1266 23.7359C22.5311 23.8907 22.974 23.9857 23.4553 24.0211C23.3287 24.0845 23.2022 24.1479 23.0756 24.2113C23.24 26.4485 23.24 28.7619 23.0756 31.1514C23.3287 31.1514 23.5819 31.1514 23.8349 31.1514C21.6245 32.9572 19.2202 34.4783 16.6222 35.7148C16.2694 35.7222 16.0163 35.5638 15.863 35.2395C16.1038 34.5407 16.2303 33.7486 16.2426 32.8627C17.6547 31.9955 19.0466 31.0763 20.4183 30.1057C19.1189 30.5432 17.7903 30.9552 16.4324 31.3416C16.3623 30.9725 16.2358 30.6238 16.0528 30.2958C16.1223 29.5004 16.1223 28.7081 16.0528 27.919C17.362 27.2633 18.6907 26.5978 20.0387 25.9226C18.7962 26.1981 17.5308 26.4199 16.2426 26.5881C16.2741 25.6985 16.2424 24.8111 16.1477 23.9261C15.8188 23.9159 15.4709 23.7891 15.1038 23.5458C15.9989 23.1201 16.9479 22.8032 17.9509 22.5951Z" fill="#674688"/>
<path opacity="0.995" fill-rule="evenodd" clip-rule="evenodd" d="M26.8716 23.5458C28.3519 23.5444 29.8389 23.7345 31.3321 24.1162C31.3953 24.0528 31.4587 23.9894 31.5219 23.9261C31.9634 23.9983 32.3113 24.1885 32.5658 24.4965C29.6555 26.7148 26.745 28.933 23.8347 31.1514C23.5817 31.1514 23.3285 31.1514 23.0755 31.1514C23.2399 28.7619 23.2399 26.4485 23.0755 24.2113C23.2021 24.1479 23.3285 24.0845 23.4551 24.0211C22.9738 23.9857 22.5309 23.8907 22.1265 23.7359C23.7022 23.7286 25.2839 23.6652 26.8716 23.5458Z" fill="#615091"/>
<path opacity="0.998" fill-rule="evenodd" clip-rule="evenodd" d="M16.0527 27.919C16.1221 28.7081 16.1221 29.5004 16.0527 30.2958C16.2356 30.6238 16.3622 30.9725 16.4323 31.3416C13.8229 32.1936 11.1656 32.2887 8.46039 31.6268C7.1549 31.0864 6.04768 30.2941 5.13877 29.25C4.75352 28.5828 4.34228 27.9491 3.90503 27.3486C3.90503 27.2852 3.90503 27.2218 3.90503 27.1585C4.02222 27.1374 4.11712 27.074 4.18974 26.9683C6.37884 29.1983 9.00449 29.9273 12.0667 29.1549C13.4424 28.8737 14.771 28.4617 16.0527 27.919Z" fill="#6E3C7E"/>
<path fill-rule="evenodd" clip-rule="evenodd" d="M44.7135 36.6655C44.6924 36.5482 44.6292 36.4531 44.5237 36.3803C45.1451 36.1518 45.7777 35.9616 46.4217 35.8099C45.1536 35.7464 43.8884 35.6513 42.6256 35.5247C41.7633 35.6266 40.9724 35.6899 40.253 35.7148C40.0632 35.588 39.8734 35.4614 39.6836 35.3345C37.9252 35.3608 36.1221 35.3608 34.2741 35.3345C33.8949 35.2113 33.5152 35.0529 33.1353 34.8592C36.9946 32.7676 40.8541 30.6761 44.7135 28.5845C44.5396 28.5317 44.4132 28.4366 44.3338 28.2993C47.3258 27.2748 50.3627 27.1164 53.4446 27.824C55.3062 28.8332 56.7614 30.2593 57.8101 32.1021C57.7517 32.2558 57.6568 32.3826 57.5254 32.4824C55.6683 30.4466 53.359 29.6543 50.5975 30.1057C47.4319 30.7734 44.4582 31.9143 41.6766 33.5282C44.0353 32.9798 46.4396 32.6313 48.8892 32.4824C52.9349 32.3997 55.8137 34.1743 57.5254 37.8064C57.6737 38.0809 57.642 38.3344 57.4305 38.5669C55.8475 36.3797 53.6964 35.3022 50.9771 35.3345C48.8233 35.5123 46.7355 35.9561 44.7135 36.6655Z" fill="#C01D4F"/>
<path opacity="0.981" fill-rule="evenodd" clip-rule="evenodd" d="M16.2426 32.8627C16.2303 33.7485 16.1038 34.5407 15.863 35.2394C16.0164 35.5638 16.2694 35.7222 16.6222 35.7148C13.6045 37.4622 10.5043 37.6206 7.32171 36.1901C6.65744 35.6826 6.02476 35.144 5.42364 34.5739C5.42364 34.4471 5.36037 34.3838 5.23384 34.3838C5.1073 34.3838 5.04403 34.3205 5.04403 34.1937C4.9401 33.8335 4.75029 33.5168 4.47461 33.243C4.53788 33.1796 4.60115 33.1161 4.66442 33.0528C6.37571 34.48 8.33704 35.082 10.5484 34.8591C12.5161 34.3467 14.4141 33.6812 16.2426 32.8627Z" fill="#6E3A7B"/>
<path fill-rule="evenodd" clip-rule="evenodd" d="M34.2741 35.3345C36.1221 35.3607 37.9252 35.3607 39.6836 35.3345C39.8734 35.4613 40.0632 35.5879 40.253 35.7148C40.9724 35.6899 41.7633 35.6265 42.6256 35.5246C43.8884 35.6513 45.1536 35.7463 46.4217 35.8098C45.7777 35.9616 45.1451 36.1517 44.5237 36.3803C44.6292 36.4531 44.6924 36.5482 44.7135 36.6655C44.3462 36.7891 43.9666 36.8524 43.5746 36.8556C43.7194 36.7096 43.9093 36.6145 44.144 36.5704C43.891 36.5071 43.6378 36.4436 43.3848 36.3803C41.567 36.346 39.7639 36.251 37.9753 36.095C37.4467 36.2283 36.9405 36.2917 36.4569 36.2852C36.3166 36.081 36.1268 35.9542 35.8875 35.9049C35.3642 35.9175 34.8581 35.9808 34.369 36.095C32.9137 35.9682 31.4587 35.8416 30.0034 35.7148C29.2243 35.8758 28.4334 36.0025 27.6309 36.095C27.9425 35.8473 28.2589 35.5938 28.5799 35.3345C30.3988 35.2812 32.2969 35.2812 34.2741 35.3345Z" fill="#C42B47"/>
<path fill-rule="evenodd" clip-rule="evenodd" d="M5.0439 34.1937C5.0439 34.3205 5.10717 34.3838 5.23371 34.3838C5.36025 34.3838 5.42351 34.4471 5.42351 34.5739C5.78372 35.4419 6.22661 36.266 6.75216 37.0458C6.33622 36.6934 5.89333 36.6299 5.42351 36.8556C4.98026 35.9804 4.85372 35.093 5.0439 34.1937Z" fill="#C1403E"/>
<path opacity="0.996" fill-rule="evenodd" clip-rule="evenodd" d="M43.5746 36.8556C43.1473 37.0828 42.7043 37.273 42.2459 37.4261C41.3164 37.0686 40.304 36.8784 39.209 36.8556C38.7028 36.9189 38.1968 36.9825 37.6906 37.0458C34.0884 36.8159 30.4821 36.6891 26.8716 36.6655C27.0162 36.3305 27.2694 36.1403 27.6308 36.0951C28.4333 36.0025 29.2242 35.8758 30.0034 35.7148C31.4586 35.8416 32.9137 35.9682 34.3689 36.0951C34.8581 35.9808 35.3641 35.9175 35.8874 35.9049C36.1267 35.9542 36.3166 36.081 36.4568 36.2852C36.9404 36.2917 37.4467 36.2284 37.9753 36.0951C39.7638 36.251 41.567 36.3461 43.3848 36.3803C43.6378 36.4436 43.891 36.5071 44.144 36.5704C43.9092 36.6145 43.7194 36.7096 43.5746 36.8556Z" fill="#CA3C41"/>
<path fill-rule="evenodd" clip-rule="evenodd" d="M26.8718 36.6655C30.4823 36.689 34.0886 36.8159 37.6908 37.0457C38.197 36.9824 38.703 36.9189 39.2092 36.8556C40.3042 36.8784 41.3166 37.0686 42.2461 37.426C41.8933 37.634 41.5137 37.7924 41.1073 37.9014C42.367 37.812 43.6325 37.6852 44.9034 37.5211C47.1521 37.3127 49.3663 37.5028 51.5467 38.0915C52.1413 38.255 52.6475 38.5403 53.0651 38.9472C52.6234 38.9158 52.2123 38.7891 51.8314 38.5669C51.2619 38.6302 50.6925 38.6937 50.1231 38.757C47.2213 38.6091 44.3108 38.4189 41.392 38.1866C40.7892 38.2955 40.1881 38.3273 39.5888 38.2817C39.8618 38.24 40.1148 38.145 40.3481 37.9965C37.9108 37.8609 35.4748 37.7341 33.0405 37.6162C30.6858 37.7109 28.2498 37.7426 25.7329 37.7112C25.4357 37.8268 25.1825 37.9854 24.9737 38.1866C24.7839 38.1866 24.5941 38.1866 24.4043 38.1866C25.1299 37.5371 25.9526 37.0302 26.8718 36.6655Z" fill="#D3543A"/>
<path fill-rule="evenodd" clip-rule="evenodd" d="M53.065 38.9472C53.3488 39.0402 53.602 39.1668 53.8242 39.3275C53.6424 39.4136 53.4841 39.5402 53.3497 39.7078C52.3375 39.4543 51.3251 39.4543 50.3128 39.7078C41.8537 39.386 33.4073 38.8791 24.9736 38.1866C25.1824 37.9855 25.4356 37.8269 25.7329 37.7113C28.2497 37.7427 30.6857 37.7109 33.0404 37.6162C35.4747 37.7341 37.9107 37.8609 40.348 37.9965C40.1147 38.145 39.8617 38.2401 39.5887 38.2817C40.188 38.3273 40.7891 38.2956 41.3919 38.1866C44.3108 38.419 47.2213 38.6091 50.123 38.7571C50.6924 38.6937 51.2619 38.6302 51.8313 38.5669C52.2122 38.7892 52.6233 38.9158 53.065 38.9472Z" fill="#DC6833"/>
<path fill-rule="evenodd" clip-rule="evenodd" d="M6.75223 37.0458C7.638 38.0598 8.58703 39.0105 9.59933 39.8979C8.55841 39.8642 7.54612 39.8642 6.56242 39.8979C6.12727 38.9227 5.74765 37.9086 5.42358 36.8556C5.8934 36.6299 6.33629 36.6934 6.75223 37.0458Z" fill="#D77D26"/>
<path fill-rule="evenodd" clip-rule="evenodd" d="M24.4042 38.1866C24.5941 38.1866 24.7839 38.1866 24.9737 38.1866C33.4073 38.8791 41.8537 39.3861 50.3129 39.7078C51.3251 39.4543 52.3375 39.4543 53.3498 39.7078C53.4841 39.5403 53.6424 39.4136 53.8243 39.3275C54.0141 39.3908 54.1407 39.5176 54.2039 39.7078C54.1876 39.8972 54.251 40.0555 54.3937 40.1831C47.1814 40.0734 39.9688 39.8515 32.7557 39.5176C32.452 39.5273 32.1673 39.5906 31.9016 39.7078C31.6448 39.4788 31.3286 39.352 30.9526 39.3275C28.4851 39.1697 26.0493 38.9795 23.645 38.7571C23.7897 38.422 24.0429 38.2319 24.4042 38.1866Z" fill="#DF762D"/>
<path opacity="0.99" fill-rule="evenodd" clip-rule="evenodd" d="M22.8858 39.1373C22.8281 39.2609 22.7649 39.3877 22.696 39.5176C30.0203 40.1264 37.3595 40.5385 44.7136 40.7535C44.8191 40.8264 44.8823 40.9214 44.9034 41.0387C43.3859 41.3553 41.8674 41.6721 40.348 41.9894C40.4274 41.8522 40.5538 41.7571 40.7277 41.7042C39.3521 41.6691 37.992 41.574 36.6468 41.419C36.4061 41.4411 36.1529 41.5044 35.8876 41.6092C35.8244 41.4823 35.761 41.3557 35.6978 41.2289C34.7487 41.2922 33.7997 41.3557 32.8507 41.419C32.6926 41.2606 32.5343 41.1021 32.3762 40.9437C30.4248 40.8714 28.685 40.903 27.1565 41.0387C26.954 40.9074 26.7324 40.8123 26.4922 40.7535C24.3582 40.5976 22.2386 40.6294 20.1336 40.8486C20.0455 40.7357 20.0139 40.6088 20.0387 40.4683C21.0033 40.0804 21.9524 39.6368 22.8858 39.1373Z" fill="#E48B22"/>
<path opacity="0.996" fill-rule="evenodd" clip-rule="evenodd" d="M23.6451 38.757C26.0494 38.9795 28.4851 39.1696 30.9526 39.3274C31.3286 39.352 31.6449 39.4788 31.9017 39.7077C32.1674 39.5906 32.4521 39.5273 32.7558 39.5176C39.9688 39.8515 47.1815 40.0734 54.3938 40.1831C54.251 40.0555 54.1876 39.8971 54.204 39.7077C55.4367 40.7805 56.2909 42.1115 56.7663 43.7007C56.8929 44.0176 56.8929 44.3344 56.7663 44.6514C54.9393 41.7871 52.3135 40.4561 48.8894 40.6584C47.5491 40.6816 46.2205 40.8084 44.9034 41.0387C44.8824 40.9214 44.8192 40.8263 44.7136 40.7535C37.3596 40.5384 30.0203 40.1264 22.696 39.5176C22.7649 39.3877 22.8282 39.2609 22.8859 39.1373C23.0783 38.9141 23.3313 38.7874 23.6451 38.757Z" fill="#E38228"/>
<path opacity="0.94" fill-rule="evenodd" clip-rule="evenodd" d="M74.5132 40.2781C76.0795 40.2181 77.6296 40.2816 79.1634 40.4683C79.0139 40.8731 78.8873 41.3167 78.7838 41.7993C78.6572 43.3837 78.6572 44.9683 78.7838 46.5528C79.942 44.5491 81.0492 42.5208 82.1055 40.4683C83.4766 40.2188 84.837 40.2188 86.1863 40.4683C86.3034 42.5113 86.3034 44.5396 86.1863 46.5528C87.1325 44.7841 88.0815 43.0095 89.0334 41.2288C89.1272 40.9182 89.1587 40.6012 89.1283 40.2781C90.0141 40.2781 90.8998 40.2781 91.7856 40.2781C89.9819 43.8271 88.1155 47.3765 86.1863 50.926C84.7793 51.1126 83.3557 51.1759 81.9156 51.1162C81.9472 49.1503 81.9156 47.1856 81.8207 45.2218C80.8275 47.1398 79.7835 49.0412 78.6889 50.926C77.3028 51.1156 75.9107 51.1791 74.5132 51.1162C74.7041 47.4541 74.7041 43.8414 74.5132 40.2781Z" fill="#2A2928"/>
<path opacity="0.945" fill-rule="evenodd" clip-rule="evenodd" d="M97.29 40.2782C99.641 40.2033 101.982 40.2983 104.313 40.5634C105.138 41.0108 105.581 41.708 105.642 42.6549C105.199 45.2213 104.535 47.7247 103.649 50.1655C103.312 50.3184 103.028 50.5403 102.794 50.831C99.897 51.1388 96.9865 51.2022 94.0633 51.0211C92.847 50.3893 92.4357 49.407 92.8296 48.074C93.3479 45.8195 93.9805 43.6013 94.7276 41.419C95.4753 40.7589 96.3294 40.3786 97.29 40.2782ZM98.8085 42.3697C99.6309 42.3697 100.454 42.3697 101.276 42.3697C100.94 44.5527 100.465 46.7076 99.8524 48.8345C99.0417 49.214 98.1876 49.3091 97.29 49.1197C97.1746 48.8857 97.1114 48.6322 97.1002 48.3592C97.5685 46.3229 98.1379 44.3265 98.8085 42.3697Z" fill="#2A2928"/>
<path opacity="0.946" fill-rule="evenodd" clip-rule="evenodd" d="M110.576 40.2781C113.424 40.2464 116.271 40.2781 119.118 40.3732C120.461 40.4827 121.22 41.2115 121.395 42.5598C121.11 43.806 120.73 45.0102 120.257 46.1725C119.793 46.4682 119.287 46.595 118.738 46.5528C118.782 48.1078 119.162 49.5654 119.877 50.926C118.3 51.1158 116.719 51.1791 115.132 51.1162C115.034 49.703 114.813 48.3087 114.467 46.9331C114.268 46.6275 113.984 46.5009 113.613 46.5528C113.451 47.4524 113.23 48.3397 112.949 49.2148C112.854 49.8455 112.823 50.4792 112.854 51.1162C111.272 51.1162 109.691 51.1162 108.109 51.1162C108.992 47.8302 109.878 44.5344 110.766 41.2289C110.613 40.9301 110.549 40.6132 110.576 40.2781ZM114.752 42.3697C115.451 42.3383 116.147 42.3699 116.84 42.4648C116.927 42.5435 116.99 42.6386 117.03 42.75C117.143 44.031 116.574 44.6014 115.322 44.4612C114.942 44.3979 114.562 44.3344 114.183 44.2711C114.45 43.6575 114.64 43.0238 114.752 42.3697Z" fill="#2A2928"/>
<path opacity="0.936" fill-rule="evenodd" clip-rule="evenodd" d="M126.33 40.2782C127.912 40.2782 129.494 40.2782 131.076 40.2782C130.108 43.2022 129.286 46.1811 128.608 49.2148C130.399 49.2899 132.171 49.1633 133.923 48.8345C133.986 48.9296 134.049 49.0247 134.112 49.1197C133.804 49.7369 133.551 50.3707 133.353 51.0212C130.127 51.1162 126.9 51.148 123.673 51.1162C124.438 48.8705 125.102 46.5888 125.666 44.2712C125.99 42.9221 126.211 41.5911 126.33 40.2782Z" fill="#2A2928"/>
<path opacity="0.944" fill-rule="evenodd" clip-rule="evenodd" d="M139.996 40.2781C142.844 40.2464 145.691 40.2781 148.538 40.3732C150.255 40.6115 150.983 41.5939 150.72 43.3204C150.217 45.6884 149.552 48.0017 148.728 50.2605C148.348 50.514 147.968 50.7676 147.589 51.0211C144.17 51.1795 140.754 51.1477 137.339 50.926C138.576 47.4619 139.462 43.9127 139.996 40.2781ZM144.172 42.3697C144.931 42.3697 145.691 42.3697 146.45 42.3697C146.177 44.3618 145.766 46.3265 145.216 48.2641C144.904 49.095 144.303 49.4119 143.413 49.2148C143.033 49.1514 142.654 49.0879 142.274 49.0246C142.987 46.8211 143.619 44.6027 144.172 42.3697Z" fill="#2A2928"/>
<path opacity="0.94" fill-rule="evenodd" clip-rule="evenodd" d="M154.422 40.2781C155.94 40.2781 157.459 40.2781 158.977 40.2781C158.764 42.3657 158.669 44.4572 158.693 46.5528C159.738 44.4278 160.908 42.368 162.204 40.3732C163.516 40.219 164.813 40.2506 166.095 40.4683C165.998 42.4916 165.998 44.5196 166.095 46.5528C166.933 44.9375 167.818 43.3531 168.752 41.7993C168.807 41.3446 168.902 40.901 169.037 40.4683C169.914 40.2795 170.8 40.216 171.694 40.2781C169.835 43.8281 167.937 47.3774 166 50.926C164.614 51.1156 163.222 51.1791 161.824 51.1162C161.886 49.0229 161.918 46.9314 161.919 44.8415C160.737 46.862 159.63 48.9218 158.598 51.0211C157.207 51.1162 155.815 51.1477 154.422 51.1162C154.465 47.463 154.465 43.8503 154.422 40.2781Z" fill="#2A2928"/>
<path opacity="0.939" fill-rule="evenodd" clip-rule="evenodd" d="M175.3 40.2782C176.82 40.2466 178.339 40.2782 179.856 40.3733C179.943 40.452 180.006 40.547 180.046 40.6585C179.771 41.0705 179.549 41.5141 179.381 41.9895C178.475 44.9849 177.811 48.0272 177.388 51.1162C175.739 51.1792 174.093 51.1158 172.453 50.9261C172.893 50.0828 173.24 49.1954 173.497 48.2641C174.24 45.624 174.841 42.962 175.3 40.2782Z" fill="#2A2928"/>
<path opacity="0.943" fill-rule="evenodd" clip-rule="evenodd" d="M184.411 40.2781C187.196 40.2464 189.98 40.2781 192.763 40.3732C194.169 40.4276 194.991 41.1566 195.23 42.5598C194.714 45.0687 194.05 47.5406 193.237 49.9753C192.813 50.3936 192.339 50.7422 191.814 51.0211C188.461 51.1162 185.108 51.1479 181.754 51.1162C182.887 47.5299 183.773 43.9173 184.411 40.2781ZM188.397 42.3697C189.207 42.3132 189.998 42.3765 190.77 42.5598C190.464 44.6871 189.958 46.7787 189.251 48.8345C189.109 48.9535 188.951 49.0486 188.777 49.1197C188.084 49.2146 187.388 49.2461 186.689 49.2148C187.177 46.912 187.747 44.6303 188.397 42.3697Z" fill="#2A2928"/>
<path opacity="0.927" fill-rule="evenodd" clip-rule="evenodd" d="M200.165 40.2782C203.265 40.2782 206.366 40.2782 209.466 40.2782C209.45 41.1104 209.356 41.9343 209.181 42.75C208.978 42.6186 208.758 42.5236 208.517 42.4648C207.063 42.3697 205.607 42.3382 204.151 42.3697C204.094 43.136 203.904 43.8648 203.582 44.5564C205.11 44.7089 206.628 44.6771 208.137 44.4613C208.277 45.1513 208.245 45.8486 208.042 46.5528C207.983 46.7065 207.888 46.8333 207.757 46.9331C206.248 46.7173 204.73 46.6856 203.202 46.8381C202.934 47.5579 202.682 48.2867 202.443 49.0247C203.139 49.088 203.834 49.1515 204.531 49.2148C205.542 49.2517 206.524 49.1249 207.473 48.8345C207.376 49.5394 207.186 50.2366 206.903 50.9261C203.787 51.1147 200.655 51.178 197.508 51.1162C198.719 47.5929 199.605 43.9802 200.165 40.2782Z" fill="#2A2928"/>
<path opacity="0.999" fill-rule="evenodd" clip-rule="evenodd" d="M9.59941 39.8979C10.7973 40.7524 12.1259 41.291 13.5853 41.5141C15.1793 41.6179 16.761 41.5228 18.3305 41.2288C20.1088 41.3426 21.7854 41.3426 23.3604 41.2288C23.5502 41.3557 23.74 41.4823 23.9298 41.6091C24.7128 41.4745 25.472 41.4112 26.2075 41.419C26.664 41.5662 27.1385 41.6612 27.631 41.7042C27.378 41.831 27.1248 41.9577 26.8718 42.0845C33.5895 42.3286 40.4542 42.6138 47.4658 42.9401C47.831 42.9247 48.1789 42.8614 48.5098 42.75C49.4138 42.9201 50.2365 43.2369 50.9773 43.7007C49.5864 43.572 48.226 43.572 46.8964 43.7007C46.7066 43.5739 46.5168 43.4472 46.327 43.3204C43.5581 43.5448 40.5529 43.5448 37.3112 43.3204C35.798 43.1736 34.2796 43.0785 32.7558 43.0352C32.9828 42.9108 32.9828 42.8158 32.7558 42.75C32.4121 42.9856 32.0325 43.1124 31.617 43.1303C28.6161 42.5615 25.5792 42.2446 22.5063 42.1796C21.2791 42.3684 20.0454 42.4952 18.805 42.5598C15.296 42.232 11.7846 42.1687 8.27076 42.3697C8.48528 42.583 8.61182 42.8367 8.65037 43.1303C7.73072 42.2067 7.03476 41.1294 6.5625 39.8979C7.54619 39.8642 8.55849 39.8642 9.59941 39.8979Z" fill="#E9A119"/>
<path fill-rule="evenodd" clip-rule="evenodd" d="M20.0386 40.4683C20.0137 40.6088 20.0454 40.7357 20.1335 40.8486C22.2385 40.6294 24.358 40.5976 26.492 40.7535C26.7323 40.8123 26.9538 40.9074 27.1563 41.0387C28.6848 40.903 30.4246 40.8714 32.376 40.9437C32.5341 41.1021 32.6924 41.2606 32.8505 41.419C33.7996 41.3557 34.7486 41.2922 35.6976 41.2289C35.7608 41.3557 35.8242 41.4823 35.8874 41.6092C36.1528 41.5044 36.406 41.4411 36.6467 41.419C37.9918 41.574 39.352 41.6691 40.7275 41.7042C40.5536 41.7571 40.4272 41.8522 40.3479 41.9894C42.4659 42.1475 44.6172 42.2425 46.8013 42.2747C47.4167 42.3519 47.9861 42.5102 48.5096 42.75C48.1787 42.8614 47.8308 42.9248 47.4656 42.9402C40.454 42.6139 33.5893 42.3287 26.8716 42.0845C27.1246 41.9577 27.3778 41.8311 27.6308 41.7042C27.1383 41.6613 26.6638 41.5662 26.2073 41.419C25.4718 41.4112 24.7126 41.4745 23.9296 41.6092C23.7398 41.4823 23.55 41.3557 23.3602 41.2289C21.7852 41.3426 20.1086 41.3426 18.3303 41.2289C18.8534 40.9049 19.4228 40.6514 20.0386 40.4683Z" fill="#EB9B1D"/>
<path fill-rule="evenodd" clip-rule="evenodd" d="M50.9773 43.7007C51.5854 43.8686 52.0916 44.1856 52.4957 44.6514C52.2778 44.9166 52.088 44.8849 51.9263 44.5563C46.4183 44.4122 40.9139 44.1905 35.4131 43.8908C33.7586 44.0445 32.0503 44.076 30.2883 43.9859C31.2374 43.9226 32.1864 43.8591 33.1354 43.7958C32.6292 43.764 32.1232 43.7324 31.617 43.7007C30.0478 43.8631 28.6243 43.9266 27.3463 43.8908C26.6503 43.764 25.9545 43.6374 25.2584 43.5106C24.7382 43.6182 24.232 43.6815 23.74 43.7007C22.5022 43.4081 21.2368 43.2812 19.9439 43.3204C16.37 43.5071 12.7953 43.5071 9.21979 43.3204C9.21979 43.5106 9.21979 43.7007 9.21979 43.8908C9.03218 43.6446 8.84237 43.3911 8.65037 43.1303C8.61182 42.8367 8.48527 42.583 8.27075 42.3697C11.7846 42.1687 15.296 42.232 18.805 42.5598C20.0454 42.4952 21.2791 42.3684 22.5063 42.1796C25.5792 42.2446 28.6161 42.5616 31.617 43.1303C32.0325 43.1124 32.4121 42.9856 32.7558 42.75C32.9828 42.8158 32.9828 42.9108 32.7558 43.0352C34.2796 43.0786 35.798 43.1736 37.3112 43.3204C40.5529 43.5448 43.5581 43.5448 46.327 43.3204C46.5168 43.4472 46.7066 43.5739 46.8964 43.7007C48.226 43.572 49.5864 43.572 50.9773 43.7007Z" fill="#F0AE14"/>
<path fill-rule="evenodd" clip-rule="evenodd" d="M52.4956 44.6514C54.3053 46.1221 55.1911 48.0235 55.1529 50.3556C53.9659 47.8579 52.0044 46.3686 49.2689 45.8873C48.0136 45.6869 46.7483 45.5918 45.4728 45.6021C43.1196 45.6512 40.7785 45.8413 38.45 46.1725C39.1188 45.9265 39.8147 45.7046 40.5378 45.507C36.8375 45.2013 33.1363 45.1695 29.4341 45.412C27.3973 45.3038 25.3728 45.1771 23.3603 45.0317C22.3634 45.0495 21.3511 45.1131 20.3234 45.2218C20.1336 45.095 19.9438 44.9684 19.754 44.8415C18.1875 44.9393 16.4792 45.0026 14.6292 45.0317C13.3558 44.6362 12.0588 44.5729 10.7382 44.8415C10.807 44.9714 10.8703 45.0982 10.928 45.2218C10.3032 44.8495 9.73382 44.4059 9.21973 43.8908C9.21973 43.7007 9.21973 43.5105 9.21973 43.3204C12.7952 43.5071 16.3699 43.5071 19.9438 43.3204C21.2367 43.2812 22.5021 43.4081 23.7399 43.7007C24.2319 43.6815 24.7381 43.6182 25.2584 43.5105C25.9544 43.6374 26.6502 43.764 27.3463 43.8908C28.6242 43.9266 30.0478 43.8631 31.6169 43.7007C32.1231 43.7324 32.6292 43.764 33.1354 43.7958C32.1863 43.8591 31.2373 43.9226 30.2883 43.9859C32.0502 44.076 33.7585 44.0445 35.413 43.8908C40.9138 44.1905 46.4182 44.4122 51.9262 44.5563C52.0879 44.8849 52.2777 44.9166 52.4956 44.6514Z" fill="#F3B712"/>
<path fill-rule="evenodd" clip-rule="evenodd" d="M38.4498 46.1725C36.4418 46.4551 34.4174 46.8036 32.376 47.2183C31.6828 47.3132 30.987 47.3447 30.2881 47.3134C25.6119 47.9604 20.93 48.0239 16.2424 47.5035C14.2356 47.258 12.4641 46.4975 10.9278 45.2218C10.8702 45.0982 10.8069 44.9714 10.738 44.8415C12.0587 44.5729 13.3557 44.6362 14.6291 45.0317C16.4791 45.0026 18.1874 44.9393 19.7539 44.8415C19.9437 44.9683 20.1335 45.095 20.3233 45.2218C21.351 45.113 22.3633 45.0495 23.3602 45.0317C25.3727 45.1771 27.3972 45.3038 29.434 45.4119C33.1362 45.1695 36.8374 45.2013 40.5377 45.507C39.8145 45.7046 39.1187 45.9265 38.4498 46.1725Z" fill="#F6C60C"/>
<path opacity="0.396" fill-rule="evenodd" clip-rule="evenodd" d="M30.2881 47.3134C26.2394 48.2454 22.1269 48.4671 17.9507 47.9788C17.3353 47.9017 16.7659 47.7433 16.2424 47.5035C20.93 48.0239 25.6119 47.9604 30.2881 47.3134Z" fill="#EEA91A"/>
<path opacity="0.812" fill-rule="evenodd" clip-rule="evenodd" d="M134.872 54.3486C135.251 54.3486 135.631 54.3486 136.01 54.3486C135.728 55.4784 135.57 56.6192 135.536 57.7711C136.155 57.2547 136.756 56.716 137.339 56.1549C137.714 56.0608 138.093 56.029 138.478 56.0598C137.992 56.8651 137.359 57.5623 136.58 58.1514C137.134 59.1055 137.513 60.1197 137.719 61.1936C137.339 61.1936 136.959 61.1936 136.58 61.1936C136.39 60.403 136.106 59.6425 135.726 58.912C134.981 59.4822 134.633 60.2427 134.682 61.1936C134.302 61.1936 133.923 61.1936 133.543 61.1936C134.046 58.9234 134.489 56.6417 134.872 54.3486Z" fill="#292726"/>
<path opacity="0.724" fill-rule="evenodd" clip-rule="evenodd" d="M139.427 54.3486C139.744 54.3486 140.06 54.3486 140.376 54.3486C140.407 54.734 140.375 55.1143 140.281 55.4894C139.811 55.7917 139.463 55.6967 139.237 55.2042C139.36 54.9304 139.424 54.6452 139.427 54.3486Z" fill="#2B2626"/>
<path opacity="0.696" fill-rule="evenodd" clip-rule="evenodd" d="M173.972 54.3486C174.357 54.3178 174.736 54.3495 175.111 54.4437C174.984 54.8239 174.858 55.2042 174.731 55.5845C174.425 55.7214 174.14 55.6899 173.877 55.4894C173.784 55.1006 173.816 54.7203 173.972 54.3486Z" fill="#2B2526"/>
<path opacity="0.814" fill-rule="evenodd" clip-rule="evenodd" d="M176.629 54.5388C176.847 54.5941 176.974 54.7525 177.009 55.0141C176.925 55.3611 176.861 55.7096 176.819 56.0599C177.514 56.0314 177.704 56.3166 177.388 56.9155C177.143 57.0087 176.89 57.0404 176.629 57.0106C176.409 58.083 176.219 59.1605 176.06 60.243C176.32 60.2131 176.574 60.2449 176.819 60.3381C176.652 60.5959 176.589 60.8811 176.629 61.1937C175.753 61.3947 175.12 61.1095 174.731 60.3381C175.02 59.24 175.273 58.1309 175.49 57.0106C175.301 57.0106 175.111 57.0106 174.921 57.0106C174.794 56.25 175.111 55.9331 175.87 56.0599C175.768 55.3432 176.021 54.8361 176.629 54.5388Z" fill="#292727"/>
<path opacity="0.806" fill-rule="evenodd" clip-rule="evenodd" d="M201.304 54.5387C201.471 54.5138 201.596 54.5771 201.684 54.7289C201.557 55.1091 201.431 55.4894 201.304 55.8697C201.53 56.0463 201.782 56.1097 202.063 56.0598C202.063 56.3768 202.063 56.6936 202.063 57.0106C201.746 57.0106 201.431 57.0106 201.114 57.0106C200.955 58.093 200.765 59.1706 200.545 60.2429C200.797 60.2429 201.052 60.2429 201.304 60.2429C201.304 60.5599 201.304 60.8767 201.304 61.1937C199.788 61.5435 199.186 60.9731 199.501 59.4824C199.679 58.672 199.901 57.8799 200.165 57.1056C199.92 57.0125 199.666 56.9807 199.406 57.0106C199.345 56.3124 199.662 55.9956 200.355 56.0598C200.222 55.2464 200.539 54.7393 201.304 54.5387Z" fill="#292726"/>
<path opacity="0.813" fill-rule="evenodd" clip-rule="evenodd" d="M122.155 56.0599C122.585 55.9916 122.933 56.1185 123.199 56.4402C124.14 55.8414 124.963 55.9682 125.666 56.8205C125.761 56.4719 125.983 56.25 126.33 56.155C127.519 55.7977 128.215 56.2097 128.418 57.3909C128.104 58.6492 127.851 59.9167 127.659 61.1937C127.343 61.1937 127.026 61.1937 126.71 61.1937C126.686 59.9572 126.876 58.753 127.279 57.581C127.292 57.2452 127.134 57.0551 126.805 57.0106C126.331 57.1214 125.951 57.3749 125.666 57.7712C125.413 58.7852 125.16 59.7994 124.907 60.8134C124.536 61.2853 124.125 61.3169 123.673 60.9085C123.977 59.7378 124.293 58.5654 124.622 57.3909C124.396 57.0327 124.08 56.9376 123.673 57.1057C123.388 57.3909 123.104 57.6761 122.819 57.9613C122.609 59.0442 122.388 60.1215 122.155 61.1937C121.775 61.1937 121.395 61.1937 121.016 61.1937C121.367 59.4701 121.747 57.7588 122.155 56.0599Z" fill="#292727"/>
<path opacity="0.798" fill-rule="evenodd" clip-rule="evenodd" d="M130.506 56.0599C131.079 56.0285 131.648 56.0602 132.214 56.1549C132.7 56.2852 133.048 56.5704 133.258 57.0106C133.103 58.398 132.945 59.7925 132.784 61.1937C132.301 61.269 131.89 61.1421 131.55 60.8134C130.617 61.3617 129.731 61.2984 128.893 60.6232C128.443 59.7678 128.602 59.039 129.367 58.4366C130.286 58.1143 131.235 57.9557 132.214 57.9613C132.074 57.0416 131.568 56.7879 130.696 57.2007C130.331 57.7088 129.824 57.8989 129.177 57.7711C129.27 56.9191 129.713 56.3487 130.506 56.0599ZM131.835 58.912C131.805 59.7666 131.362 60.2736 130.506 60.4331C129.701 60.2021 129.575 59.79 130.126 59.1972C130.668 58.9521 131.237 58.857 131.835 58.912Z" fill="#292727"/>
<path opacity="0.816" fill-rule="evenodd" clip-rule="evenodd" d="M141.135 56.0599C141.452 56.0599 141.768 56.0599 142.084 56.0599C142.056 56.2599 142.088 56.45 142.179 56.6303C143.454 55.6748 144.372 55.9283 144.931 57.3909C144.558 58.6348 144.305 59.9024 144.172 61.1937C143.793 61.1937 143.413 61.1937 143.033 61.1937C143.261 59.9477 143.514 58.7118 143.793 57.4859C143.138 56.8779 142.537 56.9729 141.989 57.7711C141.568 58.8059 141.314 59.8832 141.23 61.0035C140.908 61.1758 140.56 61.2391 140.186 61.1937C140.332 59.4489 140.648 57.7377 141.135 56.0599Z" fill="#292727"/>
<path opacity="0.813" fill-rule="evenodd" clip-rule="evenodd" d="M148.158 62.9049C147.336 62.9049 146.513 62.9049 145.691 62.9049C145.171 62.4566 145.013 61.8862 145.216 61.1937C145.539 61.3659 145.887 61.4293 146.26 61.3838C146.26 61.574 146.26 61.7641 146.26 61.9542C147.182 62.1412 147.814 61.8244 148.158 61.0035C148.127 60.9402 148.095 60.8767 148.063 60.8134C147.15 61.362 146.328 61.2353 145.596 60.4331C144.863 58.5789 145.338 57.1528 147.019 56.1549C147.78 55.9462 148.444 56.1046 149.012 56.6303C149.344 55.9684 149.755 55.9049 150.246 56.4402C149.837 58.0113 149.49 59.5959 149.202 61.1937C149.043 61.889 148.695 62.4594 148.158 62.9049ZM147.209 57.0106C148.093 56.8811 148.599 57.2614 148.728 58.1514C148.694 59.2181 148.188 59.9152 147.209 60.243C146.238 59.7286 146.017 58.9681 146.545 57.9613C146.887 57.7162 147.108 57.3992 147.209 57.0106Z" fill="#292727"/>
<path opacity="0.801" fill-rule="evenodd" clip-rule="evenodd" d="M154.232 56.0599C155.283 55.896 156.201 56.1496 156.984 56.8204C157.078 57.1311 157.11 57.4481 157.079 57.7711C156.441 57.9063 155.998 57.6844 155.751 57.1056C155.371 56.9788 154.991 56.9788 154.612 57.1056C154.453 57.2979 154.39 57.5198 154.422 57.7711C155.266 57.9244 155.993 58.3047 156.605 58.912C157.032 59.7041 156.874 60.3696 156.13 60.9084C155.035 61.3469 153.991 61.2518 152.998 60.6232C152.77 60.2093 152.675 59.7655 152.714 59.2922C153.093 59.2922 153.473 59.2922 153.852 59.2922C154.204 60.5183 154.837 60.6767 155.751 59.7676C155.211 59.2476 154.578 58.8673 153.852 58.6268C153.36 58.1862 153.201 57.6475 153.378 57.0106C153.702 56.7183 153.987 56.4013 154.232 56.0599Z" fill="#292727"/>
<path opacity="0.802" fill-rule="evenodd" clip-rule="evenodd" d="M163.153 56.0598C163.583 55.9916 163.931 56.1184 164.197 56.4401C164.788 55.9971 165.389 55.9653 166 56.3451C165.873 56.5985 165.747 56.8522 165.62 57.1056C164.99 57.1168 164.452 57.3387 164.007 57.7711C163.662 58.8996 163.378 60.0404 163.153 61.1936C162.726 61.2543 162.346 61.1592 162.014 60.9084C162.47 59.3055 162.849 57.6894 163.153 56.0598Z" fill="#2A2726"/>
<path opacity="0.804" fill-rule="evenodd" clip-rule="evenodd" d="M167.139 56.0599C169.204 55.9106 170.09 56.8613 169.796 58.912C168.657 58.912 167.519 58.912 166.38 58.912C166.361 59.9907 166.867 60.4025 167.898 60.1479C168.273 59.4835 168.842 59.1983 169.606 59.2923C169.159 60.9368 168.083 61.5388 166.38 61.0986C165.478 60.4839 165.13 59.6282 165.336 58.5317C165.575 57.4089 166.176 56.5848 167.139 56.0599ZM167.519 57.0106C168.437 56.8541 168.88 57.2344 168.847 58.1514C168.151 58.1514 167.455 58.1514 166.759 58.1514C166.789 57.6156 167.042 57.2353 167.519 57.0106Z" fill="#292827"/>
<path opacity="0.8" fill-rule="evenodd" clip-rule="evenodd" d="M181.754 56.0599C183.007 55.7678 183.83 56.2114 184.221 57.3908C184.221 57.7711 184.032 57.9613 183.652 57.9613C183.248 57.6055 182.805 57.2885 182.323 57.0106C181.429 57.4369 180.986 58.1659 180.995 59.1972C181.12 60.3481 181.626 60.6018 182.513 59.9577C182.741 59.0757 183.247 58.8855 184.032 59.3873C183.48 60.8999 182.405 61.4703 180.805 61.0986C180.137 60.6478 179.821 60.0138 179.856 59.1972C179.894 57.7533 180.527 56.7075 181.754 56.0599Z" fill="#2A2727"/>
<path opacity="0.82" fill-rule="evenodd" clip-rule="evenodd" d="M186.12 56.0599C188.418 55.9239 189.336 57.0015 188.872 59.2923C188.041 61.2325 186.681 61.7078 184.791 60.7183C183.988 58.7637 184.431 57.2108 186.12 56.0599ZM186.499 57.0106C187.382 56.8802 187.888 57.2604 188.018 58.1514C187.973 59.2778 187.435 60.0384 186.404 60.4331C185.76 60.1974 185.476 59.722 185.55 59.0071C185.582 58.6585 185.613 58.3098 185.645 57.9613C185.955 57.6643 186.24 57.3473 186.499 57.0106Z" fill="#292727"/>
<path opacity="0.806" fill-rule="evenodd" clip-rule="evenodd" d="M195.23 56.0599C195.547 56.0599 195.862 56.0599 196.179 56.0599C196.151 56.2599 196.183 56.45 196.274 56.6303C197.324 55.7663 198.21 55.8931 198.932 57.0106C198.774 58.4068 198.552 59.8013 198.267 61.1937C197.869 61.2505 197.489 61.1872 197.128 61.0035C197.32 59.8205 197.572 58.6479 197.888 57.4859C197.375 56.8855 196.838 56.9172 196.274 57.581C195.722 58.6543 195.405 59.7952 195.325 61.0035C195.003 61.1758 194.655 61.2391 194.281 61.1937C194.446 59.4539 194.763 57.7426 195.23 56.0599Z" fill="#292727"/>
<path opacity="0.808" fill-rule="evenodd" clip-rule="evenodd" d="M203.392 56.0599C204.518 55.8395 205.434 56.1563 206.144 57.0106C206.237 57.2564 206.269 57.5101 206.239 57.7711C205.916 57.8016 205.599 57.77 205.29 57.6761C204.715 56.8881 204.083 56.8248 203.392 57.4859C204.229 57.8913 205.021 58.3667 205.765 58.912C206.091 59.9066 205.806 60.6356 204.91 61.0986C204.064 61.2635 203.242 61.2001 202.443 60.9085C201.944 60.4909 201.754 59.9521 201.874 59.2923C202.629 59.117 203.073 59.4022 203.202 60.1479C203.711 60.5478 204.185 60.516 204.626 60.0528C204.755 59.8087 204.724 59.5868 204.531 59.3873C203.787 59.0945 203.122 58.6825 202.538 58.1514C202.306 57.2247 202.591 56.5274 203.392 56.0599Z" fill="#292727"/>
<path opacity="0.803" fill-rule="evenodd" clip-rule="evenodd" d="M139.047 56.0598C139.518 55.9745 139.897 56.1011 140.186 56.4401C139.659 57.9831 139.343 59.5676 139.237 61.1936C138.858 61.1936 138.478 61.1936 138.098 61.1936C138.338 59.4677 138.654 57.7565 139.047 56.0598Z" fill="#292726"/>
<path opacity="0.805" fill-rule="evenodd" clip-rule="evenodd" d="M158.218 56.0599C158.534 56.0599 158.851 56.0599 159.167 56.0599C159.068 57.3578 158.815 58.6254 158.408 59.8627C159.328 60.451 159.992 60.1975 160.401 59.1021C160.732 58.1102 160.953 57.0961 161.065 56.0599C161.381 56.0599 161.698 56.0599 162.014 56.0599C161.938 57.6791 161.653 59.2637 161.16 60.8134C160.78 61.3205 160.401 61.3205 160.021 60.8134C159.071 61.3954 158.217 61.3003 157.459 60.5282C157.5 59.0221 157.753 57.5327 158.218 56.0599Z" fill="#292727"/>
<path opacity="0.813" fill-rule="evenodd" clip-rule="evenodd" d="M173.592 56.0598C173.915 56.0294 174.231 56.061 174.541 56.1549C174.64 56.2616 174.704 56.3884 174.731 56.5352C174.308 58.0696 173.992 59.6225 173.782 61.1936C173.403 61.1936 173.023 61.1936 172.643 61.1936C172.886 59.4683 173.203 57.757 173.592 56.0598Z" fill="#292726"/>
<path opacity="0.807" fill-rule="evenodd" clip-rule="evenodd" d="M190.295 56.0598C190.612 56.0598 190.928 56.0598 191.244 56.0598C191.067 57.3087 190.814 58.5446 190.485 59.7676C190.918 60.3654 191.424 60.3971 192.003 59.8627C192.557 58.6587 192.937 57.3912 193.142 56.0598C193.612 55.9745 193.993 56.1011 194.281 56.4401C193.814 57.9964 193.497 59.5811 193.332 61.1936C192.83 61.2583 192.387 61.1315 192.003 60.8134C189.749 61.6884 188.958 60.9278 189.631 58.5317C189.824 57.6928 190.046 56.8689 190.295 56.0598Z" fill="#2A2727"/>
</g>
<defs>
<clipPath id="clip0_971_513">
<rect width="216" height="54" fill="white" transform="translate(4 9)"/>
</clipPath>
</defs>
</svg>
