<svg width="224" height="72" viewBox="0 0 224 72" fill="none" xmlns="http://www.w3.org/2000/svg">
<path opacity="0.996" fill-rule="evenodd" clip-rule="evenodd" d="M25.5063 16.711C30.1063 16.6831 34.7001 16.7112 39.2875 16.7954C45.8535 29.4783 52.4305 42.1548 59.0188 54.8246C53.8269 54.8949 48.6353 54.8809 43.4438 54.7824C39.8125 47.0443 36.1813 39.3063 32.55 31.5681C30.6927 35.4614 28.8114 39.3445 26.9063 43.2175C29.9104 43.2738 32.9147 43.33 35.9188 43.3863C37.6104 47.185 39.3022 50.9837 40.9938 54.7824C29.6481 54.8668 18.3022 54.8949 6.9563 54.8668C13.1391 42.1491 19.3225 29.4306 25.5063 16.711Z" fill="#006CAF"/>
<path opacity="0.996" fill-rule="evenodd" clip-rule="evenodd" d="M49.5687 16.7111C53.6522 16.697 57.7355 16.7111 61.8187 16.7533C65.6942 22.3879 69.5588 28.0296 73.4125 33.6786C73.4562 28.0229 73.4708 22.367 73.4562 16.7111C78.5313 16.697 83.6063 16.7111 88.6812 16.7533C95.8282 17.1697 101.822 19.8851 106.662 24.8994C107.402 25.7814 108.072 26.7099 108.675 27.6851C108.719 24.0272 108.734 20.3692 108.719 16.7111C115.923 16.697 123.127 16.7111 130.331 16.7533C133.288 16.9158 135.942 17.8443 138.294 19.539C140.507 21.5148 141.834 23.9488 142.275 26.841C142.848 31.1237 141.229 34.3737 137.419 36.591C136.938 36.8087 136.471 37.0478 136.019 37.3085C138.709 40.8954 141.378 44.4971 144.025 48.1137C144.069 42.2047 144.084 36.2956 144.069 30.3864C148.385 30.3864 152.702 30.3864 157.019 30.3864C157.019 38.6591 157.019 46.9319 157.019 55.2046C148.823 55.2187 140.627 55.2046 132.431 55.1624C128.964 49.246 125.507 43.3229 122.062 37.3929C122.019 43.3301 122.004 49.2673 122.019 55.2046C117.585 55.2046 113.152 55.2046 108.719 55.2046C108.734 51.4902 108.719 47.7759 108.675 44.0617C104.656 50.6816 98.6623 54.3819 90.6937 55.1624C89.761 55.2046 88.8273 55.2187 87.8937 55.2046C87.8937 51.3496 87.8937 47.4947 87.8937 43.6397C90.832 43.5072 93.3257 42.438 95.375 40.4319C96.9613 38.3133 97.4277 35.9778 96.775 33.4254C96.2255 31.8164 95.1903 30.5924 93.6687 29.7533C91.2843 28.5841 88.7608 28.0636 86.1 28.1916C86.0562 37.1959 86.0416 46.2002 86.0562 55.2046C81.6516 55.2327 77.2475 55.2046 72.8437 55.1202C69.3803 49.5347 65.8949 43.9633 62.3875 38.4059C62.3437 43.8928 62.3291 49.3798 62.3437 54.8669C61.9123 54.8925 61.4895 54.8643 61.075 54.7825C57.2303 47.2236 53.4094 39.6543 49.6125 32.0747C49.5687 26.9536 49.5541 21.8324 49.5687 16.7111ZM122.631 27.5163C124.335 27.3816 125.997 27.5645 127.619 28.065C129.363 28.9518 129.845 30.2883 129.062 32.0747C128.196 33.5008 126.898 34.331 125.169 34.565C124.079 34.7785 123.015 34.7082 121.975 34.3539C121.931 32.103 121.916 29.852 121.931 27.6007C122.184 27.6265 122.417 27.5984 122.631 27.5163Z" fill="#006CB0"/>
<path opacity="0.996" fill-rule="evenodd" clip-rule="evenodd" d="M144.069 16.7111C157.281 16.697 170.494 16.7111 183.706 16.7533C182.007 20.5247 180.345 24.3093 178.719 28.1072C176.765 28.1072 174.81 28.1072 172.856 28.1072C172.856 37.1397 172.856 46.1721 172.856 55.2046C168.51 55.2046 164.165 55.2046 159.819 55.2046C159.819 46.144 159.819 37.0834 159.819 28.0228C154.569 28.0228 149.319 28.0228 144.069 28.0228C144.069 24.2522 144.069 20.4817 144.069 16.7111Z" fill="#006CAF"/>
<path opacity="0.994" fill-rule="evenodd" clip-rule="evenodd" d="M187.294 16.7111C193.594 16.697 199.894 16.7111 206.194 16.7533C202.519 25.6732 198.844 34.5931 195.169 43.513C200.594 43.5271 206.019 43.5693 211.444 43.6397C213.307 47.4873 215.144 51.3422 216.956 55.2046C202.956 55.2046 188.956 55.2046 174.956 55.2046C179.106 46.183 183.306 37.1787 187.556 28.1916C185.749 28.1072 183.941 28.0791 182.131 28.1072C183.835 24.3015 185.556 20.5028 187.294 16.7111Z" fill="#006CB0"/>
</svg>
