<svg width="224" height="72" viewBox="0 0 224 72" fill="none" xmlns="http://www.w3.org/2000/svg">
<path d="M194.135 28.725C196.775 28.9979 198.845 29.2414 198.845 29.2414L194.193 24.1199C194.214 23.6162 194.24 23.1376 194.273 22.6884C194.483 20.1739 192.896 17.8902 192.959 22.7598L178.057 6.35425L137.706 1.9884L151.333 17.5334C160.241 3.55843 178.057 17.6215 178.057 17.6215C166.353 12.118 160.589 12.2943 156.047 15.4386C151.165 19.4098 147.055 26.7352 154.787 30.1901C163.116 34.2705 174.144 38.5734 183.124 34.8288L183.212 28.1038C184.085 27.8141 188.791 28.1919 192.817 28.5907C193.077 36.7431 191.284 42.171 191.246 48.6568C191.246 48.6568 194.508 50.6383 196.02 48.6568C195.319 40.4877 193.979 37.3518 194.135 28.725ZM180.609 33.2042C180.147 37.2553 151.316 29.72 152.898 25.9586C153.36 21.9076 182.196 29.4471 180.609 33.2042Z" fill="#F37124"/>
<path d="M25.9233 65.2262H25.4615L25.365 63.1776H26.0199L25.9233 65.2262ZM27.6445 65.2262H27.1869L27.0903 63.1776H27.7452L27.6445 65.2262Z" fill="#515251"/>
<path d="M29.2021 63.3412H29.8528V69.8564H29.2021V63.3412Z" fill="#515251"/>
<path d="M31.7879 65.0372H32.4092V65.902C32.6569 65.5703 32.9297 65.3227 33.232 65.1589C33.5342 64.9952 33.8617 64.9113 34.2143 64.9113C34.5753 64.9113 34.8944 65.0036 35.1714 65.1841C35.4485 65.3688 35.6584 65.6123 35.7885 65.923C35.9229 66.2336 35.9858 66.7164 35.9858 67.3712V69.8522H35.3645V67.556C35.3645 67.0018 35.3393 66.6282 35.2974 66.4435C35.226 66.1245 35.0875 65.8852 34.886 65.7257C34.6803 65.5661 34.4158 65.4864 34.0884 65.4864C33.7147 65.4864 33.3789 65.6123 33.0809 65.86C32.7828 66.1077 32.5897 66.4141 32.4931 66.7793C32.4344 67.0186 32.405 67.4552 32.405 68.0891V69.8564H31.7837V65.0372H31.7879Z" fill="#515251"/>
<path d="M37.8624 65.0372H38.4836V65.902C38.7313 65.5703 39.0042 65.3227 39.3064 65.1589C39.6087 64.9952 39.9361 64.9113 40.2888 64.9113C40.6498 64.9113 40.9688 65.0036 41.2459 65.1841C41.523 65.3688 41.7328 65.6123 41.863 65.923C41.9973 66.2336 42.0603 66.7164 42.0603 67.3712V69.8522H41.439V67.556C41.439 67.0018 41.4138 66.6282 41.3718 66.4435C41.3005 66.1245 41.1619 65.8852 40.9604 65.7257C40.7547 65.5661 40.4903 65.4864 40.1628 65.4864C39.7892 65.4864 39.4534 65.6123 39.1553 65.86C38.8573 66.1077 38.6642 66.4141 38.5676 66.7793C38.5088 67.0186 38.4794 67.4552 38.4794 68.0891V69.8564H37.8582V65.0372H37.8624Z" fill="#515251"/>
<path d="M46.216 64.9113C46.9591 64.9113 47.572 65.1799 48.0631 65.7173C48.5081 66.2084 48.7264 66.7877 48.7264 67.4594C48.7264 68.1311 48.4913 68.723 48.0253 69.2225C47.5552 69.7263 46.9549 69.9782 46.216 69.9782C45.4772 69.9782 44.8727 69.7263 44.4025 69.2225C43.9324 68.7188 43.6973 68.1311 43.6973 67.4594C43.6973 66.7919 43.9198 66.2126 44.3605 65.7257C44.8559 65.1841 45.473 64.9113 46.216 64.9113ZM46.216 65.52C45.6997 65.52 45.2589 65.7089 44.8853 66.0909C44.5159 66.4729 44.3312 66.9305 44.3312 67.472C44.3312 67.8204 44.4151 68.1437 44.583 68.4459C44.7509 68.7482 44.9818 68.9791 45.2673 69.1428C45.5528 69.3065 45.8718 69.3904 46.2118 69.3904C46.5561 69.3904 46.8709 69.3065 47.1564 69.1428C47.4418 68.9791 47.6727 68.7482 47.8406 68.4459C48.0085 68.1437 48.0925 67.8204 48.0925 67.472C48.0925 66.9305 47.9078 66.4729 47.5342 66.0909C47.169 65.7089 46.7282 65.52 46.216 65.52Z" fill="#515251"/>
<path d="M49.9651 65.0372H50.6242L52.2404 68.5509L53.8398 65.0372H54.5031L52.2991 69.8565H52.1858L49.9651 65.0372Z" fill="#515251"/>
<path d="M60.7914 65.0373V69.8565H60.1785V69.0295C59.9183 69.3443 59.6286 69.5836 59.3054 69.7432C58.9821 69.9027 58.6295 69.9824 58.2433 69.9824C57.5632 69.9824 56.9797 69.7348 56.4969 69.2394C56.0142 68.744 55.7749 68.1437 55.7749 67.4343C55.7749 66.7416 56.0184 66.1455 56.5053 65.6544C56.9923 65.1632 57.58 64.9155 58.2643 64.9155C58.6589 64.9155 59.0157 64.9995 59.3389 65.1674C59.658 65.3353 59.9393 65.5872 60.1827 65.923V65.0373H60.7914ZM58.3147 65.5116C57.9704 65.5116 57.6514 65.5956 57.3575 65.7677C57.0637 65.9356 56.8328 66.1749 56.6607 66.4814C56.4886 66.7878 56.4004 67.111 56.4004 67.4553C56.4004 67.7953 56.4886 68.1185 56.6607 68.4292C56.8328 68.7398 57.0679 68.9791 57.3617 69.1512C57.6556 69.3234 57.9704 69.4115 58.3063 69.4115C58.6463 69.4115 58.9653 69.3276 59.2718 69.1554C59.574 68.9833 59.8091 68.7524 59.9728 68.4628C60.1366 68.1689 60.2205 67.8415 60.2205 67.4763C60.2205 66.9179 60.0358 66.452 59.6706 66.0784C59.3012 65.6963 58.8478 65.5116 58.3147 65.5116Z" fill="#515251"/>
<path d="M63.2683 63.249H63.8896V65.0373H64.872V65.5747H63.8896V69.8566H63.2683V65.5747H62.4246V65.0373H63.2683V63.249Z" fill="#515251"/>
<path d="M70.4046 68.2571L70.9251 68.5299C70.753 68.8658 70.5557 69.1386 70.329 69.3443C70.1065 69.55 69.8505 69.7096 69.5692 69.8145C69.2879 69.9237 68.9689 69.9782 68.6163 69.9782C67.8313 69.9782 67.2142 69.7222 66.7734 69.2058C66.3284 68.6895 66.1101 68.1102 66.1101 67.4595C66.1101 66.8466 66.299 66.305 66.6726 65.8265C67.147 65.2178 67.7851 64.9155 68.5827 64.9155C69.4055 64.9155 70.0604 65.2262 70.5515 65.8517C70.9 66.2924 71.0763 66.8424 71.0847 67.4973H66.7482C66.7608 68.0556 66.9371 68.5174 67.2855 68.8742C67.6298 69.231 68.0579 69.4115 68.5659 69.4115C68.8094 69.4115 69.0487 69.3695 69.2837 69.2856C69.5146 69.2016 69.7119 69.0883 69.8757 68.9455C70.0394 68.7986 70.2157 68.5719 70.4046 68.2571ZM70.4046 66.9599C70.3206 66.6283 70.2031 66.3638 70.0436 66.1665C69.884 65.9692 69.6783 65.8097 69.4181 65.6879C69.1578 65.5662 68.8849 65.5074 68.5995 65.5074C68.1251 65.5074 67.7179 65.6586 67.3821 65.965C67.1344 66.1875 66.9455 66.5191 66.8196 66.9599H70.4046Z" fill="#515251"/>
<path d="M73.4693 68.8784C73.6204 68.8784 73.7464 68.933 73.8555 69.0379C73.9605 69.1429 74.015 69.273 74.015 69.4284C74.015 69.5795 73.9605 69.7096 73.8555 69.8146C73.7506 69.9237 73.6204 69.9783 73.4693 69.9783C73.3182 69.9783 73.1923 69.9237 73.0831 69.8146C72.9782 69.7054 72.9236 69.5795 72.9236 69.4284C72.9236 69.273 72.9782 69.1471 73.0831 69.0379C73.1881 68.933 73.3182 68.8784 73.4693 68.8784Z" fill="#515251"/>
<path d="M79.0022 63.3412H82.7342V63.9793H79.6529V66.0195H82.709V66.6576H79.6529V69.2183H82.709V69.8564H79.0022V63.3412Z" fill="#515251"/>
<path d="M89.1108 63.1776V69.8565H88.4979V69.0295C88.2376 69.3444 87.9479 69.5837 87.6247 69.7432C87.3015 69.9027 86.9488 69.9825 86.5626 69.9825C85.8826 69.9825 85.299 69.7348 84.8163 69.2394C84.3335 68.7441 84.0942 68.1438 84.0942 67.4343C84.0942 66.7417 84.3377 66.1455 84.8247 65.6544C85.3116 65.1632 85.8993 64.9156 86.5836 64.9156C86.9782 64.9156 87.335 64.9995 87.6583 65.1674C87.9773 65.3353 88.2586 65.5872 88.5021 65.9231V63.1776H89.1108ZM86.634 65.5117C86.2898 65.5117 85.9707 65.5956 85.6769 65.7677C85.383 65.9399 85.1521 66.1749 84.98 66.4814C84.8079 66.7878 84.7197 67.1111 84.7197 67.4553C84.7197 67.7953 84.8079 68.1186 84.98 68.4292C85.1521 68.7399 85.3872 68.9792 85.6811 69.1513C85.9749 69.3234 86.2898 69.4115 86.6256 69.4115C86.9656 69.4115 87.2847 69.3276 87.5911 69.1555C87.8934 68.9834 88.1285 68.7525 88.2922 68.4628C88.4559 68.169 88.5357 67.8415 88.5357 67.4763C88.5357 66.918 88.3509 66.452 87.9857 66.0784C87.6205 65.6964 87.1713 65.5117 86.634 65.5117Z" fill="#515251"/>
<path d="M90.979 65.0373H91.6003V67.2874C91.6003 67.8373 91.6297 68.2151 91.6885 68.4208C91.7766 68.7147 91.9445 68.9497 92.1964 69.1219C92.4483 69.294 92.7421 69.3779 93.0906 69.3779C93.4348 69.3779 93.7287 69.294 93.9721 69.1261C94.2114 68.9581 94.3793 68.7399 94.4717 68.467C94.5347 68.2823 94.564 67.8877 94.564 67.2832V65.0331H95.1979V67.3965C95.1979 68.0598 95.1224 68.5593 94.967 68.8994C94.8117 69.2352 94.5808 69.4997 94.266 69.6886C93.9553 69.8775 93.5649 69.974 93.0948 69.974C92.6246 69.974 92.2342 69.8775 91.9193 69.6886C91.6045 69.4997 91.3694 69.231 91.2141 68.891C91.0588 68.5509 90.9832 68.0388 90.9832 67.3503V65.0373H90.979Z" fill="#515251"/>
<path d="M101.793 66.0364L101.302 66.3428C100.878 65.7803 100.298 65.499 99.5637 65.499C98.976 65.499 98.489 65.6879 98.1028 66.0658C97.7166 66.4436 97.5193 66.9011 97.5193 67.4427C97.5193 67.7953 97.6074 68.1227 97.788 68.4334C97.9685 68.744 98.2119 68.9833 98.5226 69.1554C98.8332 69.3276 99.1817 69.4115 99.5679 69.4115C100.277 69.4115 100.852 69.1303 101.302 68.5677L101.793 68.891C101.562 69.2394 101.251 69.5081 100.865 69.697C100.479 69.8901 100.034 69.9824 99.5385 69.9824C98.7787 69.9824 98.1448 69.739 97.6452 69.2562C97.1457 68.7734 96.8938 68.1815 96.8938 67.4889C96.8938 67.0229 97.0113 66.5905 97.2464 66.1875C97.4815 65.7887 97.8047 65.4738 98.2161 65.2514C98.6275 65.0289 99.0851 64.9155 99.5931 64.9155C99.9121 64.9155 100.219 64.9659 100.517 65.0625C100.815 65.159 101.067 65.2849 101.272 65.4445C101.474 65.5956 101.646 65.7971 101.793 66.0364Z" fill="#515251"/>
<path d="M108.329 65.0373V69.8565H107.716V69.0295C107.456 69.3443 107.166 69.5836 106.843 69.7432C106.52 69.9027 106.167 69.9824 105.781 69.9824C105.101 69.9824 104.517 69.7348 104.035 69.2394C103.552 68.744 103.312 68.1437 103.312 67.4343C103.312 66.7416 103.556 66.1455 104.043 65.6544C104.53 65.1632 105.118 64.9155 105.802 64.9155C106.196 64.9155 106.553 64.9995 106.877 65.1674C107.196 65.3353 107.477 65.5872 107.72 65.923V65.0373H108.329ZM105.852 65.5116C105.508 65.5116 105.189 65.5956 104.895 65.7677C104.601 65.9356 104.37 66.1749 104.198 66.4814C104.026 66.7878 103.938 67.111 103.938 67.4553C103.938 67.7953 104.026 68.1185 104.198 68.4292C104.37 68.7398 104.605 68.9791 104.899 69.1512C105.193 69.3234 105.508 69.4115 105.844 69.4115C106.184 69.4115 106.503 69.3276 106.809 69.1554C107.112 68.9833 107.347 68.7524 107.51 68.4628C107.674 68.1689 107.758 67.8415 107.758 67.4763C107.758 66.9179 107.573 66.452 107.208 66.0784C106.839 65.6963 106.385 65.5116 105.852 65.5116Z" fill="#515251"/>
<path d="M110.805 63.249H111.427V65.0373H112.409V65.5747H111.427V69.8566H110.805V65.5747H109.962V65.0373H110.805V63.249Z" fill="#515251"/>
<path d="M117.942 68.2571L118.463 68.5299C118.291 68.8658 118.094 69.1386 117.871 69.3443C117.649 69.55 117.392 69.7096 117.111 69.8145C116.83 69.9237 116.511 69.9782 116.158 69.9782C115.373 69.9782 114.756 69.7222 114.315 69.2058C113.875 68.6895 113.652 68.1102 113.652 67.4595C113.652 66.8466 113.841 66.305 114.215 65.8265C114.689 65.2178 115.327 64.9155 116.125 64.9155C116.947 64.9155 117.602 65.2262 118.094 65.8517C118.442 66.2924 118.618 66.8424 118.627 67.4973H114.29C114.303 68.0556 114.479 68.5174 114.828 68.8742C115.172 69.231 115.6 69.4115 116.108 69.4115C116.351 69.4115 116.591 69.3695 116.826 69.2856C117.057 69.2016 117.254 69.0883 117.418 68.9455C117.577 68.7986 117.753 68.5719 117.942 68.2571ZM117.942 66.9599C117.858 66.6283 117.741 66.3638 117.581 66.1665C117.422 65.9692 117.212 65.8097 116.956 65.6879C116.696 65.5662 116.423 65.5074 116.137 65.5074C115.663 65.5074 115.256 65.6586 114.92 65.965C114.672 66.1875 114.483 66.5191 114.357 66.9599H117.942Z" fill="#515251"/>
<path d="M121.003 68.8784C121.154 68.8784 121.28 68.933 121.389 69.0379C121.494 69.1429 121.548 69.273 121.548 69.4284C121.548 69.5795 121.494 69.7096 121.389 69.8146C121.284 69.9237 121.154 69.9783 121.003 69.9783C120.851 69.9783 120.725 69.9237 120.616 69.8146C120.511 69.7054 120.457 69.5795 120.457 69.4284C120.457 69.273 120.511 69.1471 120.616 69.0379C120.725 68.933 120.856 68.8784 121.003 68.8784Z" fill="#515251"/>
<path d="M125.86 68.6433L126.414 68.3117C126.804 69.0295 127.253 69.3864 127.765 69.3864C127.984 69.3864 128.189 69.336 128.383 69.2352C128.576 69.1345 128.723 68.9959 128.819 68.8238C128.92 68.6517 128.97 68.4712 128.97 68.2781C128.97 68.0598 128.895 67.8457 128.748 67.6358C128.542 67.3462 128.173 66.9977 127.631 66.5905C127.09 66.1791 126.75 65.8853 126.615 65.7006C126.384 65.3941 126.271 65.0625 126.271 64.7057C126.271 64.4244 126.338 64.1641 126.473 63.929C126.607 63.694 126.8 63.5134 127.048 63.3791C127.295 63.2448 127.564 63.1776 127.849 63.1776C128.156 63.1776 128.441 63.2532 128.71 63.4043C128.979 63.5554 129.26 63.8367 129.558 64.2439L129.025 64.6469C128.781 64.3236 128.571 64.1095 128.399 64.0046C128.227 63.8997 128.038 63.8493 127.833 63.8493C127.568 63.8493 127.354 63.929 127.19 64.0886C127.022 64.2481 126.938 64.4454 126.938 64.6763C126.938 64.819 126.968 64.9533 127.027 65.0877C127.085 65.222 127.195 65.3647 127.35 65.5201C127.434 65.604 127.715 65.8181 128.189 66.1707C128.752 66.5863 129.138 66.9558 129.348 67.2832C129.558 67.6064 129.663 67.9339 129.663 68.2613C129.663 68.7315 129.482 69.1429 129.126 69.4913C128.765 69.8397 128.332 70.0118 127.816 70.0118C127.421 70.0118 127.06 69.9069 126.741 69.697C126.431 69.4913 126.132 69.1387 125.86 68.6433Z" fill="#515251"/>
<path d="M131.414 65.0373H132.035V67.2874C132.035 67.8373 132.064 68.2151 132.123 68.4208C132.211 68.7147 132.379 68.9497 132.631 69.1219C132.879 69.294 133.177 69.3779 133.525 69.3779C133.869 69.3779 134.163 69.294 134.407 69.1261C134.646 68.9581 134.814 68.7399 134.906 68.467C134.969 68.2823 134.999 67.8877 134.999 67.2832V65.0331H135.633V67.3965C135.633 68.0598 135.557 68.5593 135.402 68.8994C135.246 69.2352 135.015 69.4997 134.701 69.6886C134.39 69.8775 134 69.974 133.529 69.974C133.059 69.974 132.669 69.8775 132.354 69.6886C132.039 69.4997 131.804 69.231 131.649 68.891C131.493 68.5509 131.418 68.0388 131.418 67.3503V65.0373H131.414Z" fill="#515251"/>
<path d="M142.227 66.0364L141.736 66.3428C141.312 65.7803 140.733 65.499 139.998 65.499C139.411 65.499 138.924 65.6879 138.537 66.0658C138.151 66.4436 137.954 66.9011 137.954 67.4427C137.954 67.7953 138.042 68.1227 138.223 68.4334C138.399 68.744 138.647 68.9833 138.957 69.1554C139.268 69.3276 139.616 69.4115 140.002 69.4115C140.712 69.4115 141.287 69.1303 141.736 68.5677L142.227 68.891C141.996 69.2394 141.686 69.5081 141.3 69.697C140.909 69.8901 140.468 69.9824 139.973 69.9824C139.213 69.9824 138.579 69.739 138.08 69.2562C137.576 68.7734 137.328 68.1815 137.328 67.4889C137.328 67.0229 137.446 66.5905 137.681 66.1875C137.916 65.7887 138.239 65.4738 138.651 65.2514C139.062 65.0289 139.52 64.9155 140.028 64.9155C140.347 64.9155 140.653 64.9659 140.951 65.0625C141.249 65.159 141.501 65.2849 141.707 65.4445C141.908 65.5956 142.08 65.7971 142.227 66.0364Z" fill="#515251"/>
<path d="M148.638 66.0364L148.146 66.3428C147.722 65.7803 147.143 65.499 146.408 65.499C145.821 65.499 145.334 65.6879 144.948 66.0658C144.561 66.4436 144.364 66.9011 144.364 67.4427C144.364 67.7953 144.452 68.1227 144.633 68.4334C144.809 68.744 145.057 68.9833 145.367 69.1554C145.678 69.3276 146.026 69.4115 146.413 69.4115C147.122 69.4115 147.697 69.1303 148.146 68.5677L148.638 68.891C148.407 69.2394 148.096 69.5081 147.71 69.697C147.319 69.8901 146.879 69.9824 146.383 69.9824C145.623 69.9824 144.99 69.739 144.49 69.2562C143.986 68.7734 143.739 68.1815 143.739 67.4889C143.739 67.0229 143.856 66.5905 144.091 66.1875C144.326 65.7887 144.649 65.4738 145.061 65.2514C145.472 65.0289 145.93 64.9155 146.438 64.9155C146.757 64.9155 147.063 64.9659 147.361 65.0625C147.659 65.159 147.911 65.2849 148.117 65.4445C148.318 65.5956 148.495 65.7971 148.638 66.0364Z" fill="#515251"/>
<path d="M154.431 68.2571L154.951 68.5299C154.779 68.8658 154.582 69.1386 154.359 69.3443C154.137 69.55 153.881 69.7096 153.599 69.8145C153.318 69.9237 152.999 69.9782 152.647 69.9782C151.862 69.9782 151.244 69.7222 150.804 69.2058C150.363 68.6895 150.14 68.1102 150.14 67.4595C150.14 66.8466 150.329 66.305 150.703 65.8265C151.177 65.2178 151.815 64.9155 152.613 64.9155C153.436 64.9155 154.091 65.2262 154.582 65.8517C154.93 66.2924 155.107 66.8424 155.115 67.4973H150.778C150.791 68.0556 150.967 68.5174 151.316 68.8742C151.66 69.231 152.088 69.4115 152.596 69.4115C152.84 69.4115 153.079 69.3695 153.314 69.2856C153.545 69.2016 153.742 69.0883 153.906 68.9455C154.065 68.7986 154.242 68.5719 154.431 68.2571ZM154.431 66.9599C154.347 66.6283 154.229 66.3638 154.07 66.1665C153.91 65.9692 153.7 65.8097 153.444 65.6879C153.184 65.5662 152.911 65.5074 152.626 65.5074C152.151 65.5074 151.744 65.6586 151.408 65.965C151.16 66.1875 150.972 66.5191 150.846 66.9599H154.431Z" fill="#515251"/>
<path d="M160.87 68.2571L161.391 68.5299C161.219 68.8658 161.021 69.1386 160.799 69.3443C160.576 69.55 160.32 69.7096 160.039 69.8145C159.758 69.9237 159.439 69.9782 159.086 69.9782C158.301 69.9782 157.684 69.7222 157.243 69.2058C156.802 68.6895 156.58 68.1102 156.58 67.4595C156.58 66.8466 156.769 66.305 157.142 65.8265C157.617 65.2178 158.255 64.9155 159.052 64.9155C159.875 64.9155 160.53 65.2262 161.021 65.8517C161.37 66.2924 161.546 66.8424 161.554 67.4973H157.218C157.231 68.0556 157.407 68.5174 157.755 68.8742C158.099 69.231 158.528 69.4115 159.036 69.4115C159.279 69.4115 159.518 69.3695 159.753 69.2856C159.984 69.2016 160.182 69.0883 160.345 68.9455C160.505 68.7986 160.681 68.5719 160.87 68.2571ZM160.87 66.9599C160.786 66.6283 160.669 66.3638 160.509 66.1665C160.35 65.9692 160.14 65.8097 159.884 65.6879C159.623 65.5662 159.35 65.5074 159.065 65.5074C158.591 65.5074 158.183 65.6586 157.848 65.965C157.6 66.1875 157.411 66.5191 157.285 66.9599H160.87Z" fill="#515251"/>
<path d="M168.061 63.1776V69.8565H167.448V69.0295C167.188 69.3444 166.898 69.5837 166.575 69.7432C166.252 69.9027 165.899 69.9825 165.513 69.9825C164.833 69.9825 164.25 69.7348 163.767 69.2394C163.284 68.7441 163.041 68.1438 163.041 67.4343C163.041 66.7417 163.284 66.1455 163.771 65.6544C164.258 65.1632 164.846 64.9156 165.53 64.9156C165.925 64.9156 166.286 64.9995 166.605 65.1674C166.924 65.3353 167.205 65.5872 167.448 65.9231V63.1776H168.061ZM165.58 65.5117C165.236 65.5117 164.917 65.5956 164.623 65.7677C164.329 65.9357 164.098 66.1749 163.926 66.4814C163.754 66.7878 163.666 67.1111 163.666 67.4553C163.666 67.7953 163.754 68.1186 163.926 68.4292C164.098 68.7399 164.333 68.9792 164.627 69.1513C164.921 69.3234 165.236 69.4115 165.572 69.4115C165.912 69.4115 166.231 69.3276 166.537 69.1555C166.84 68.9834 167.075 68.7525 167.238 68.4628C167.402 68.169 167.482 67.8415 167.482 67.4763C167.482 66.918 167.297 66.452 166.932 66.0784C166.571 65.6964 166.118 65.5117 165.58 65.5117Z" fill="#515251"/>
<path d="M170.689 68.8784C170.84 68.8784 170.966 68.933 171.075 69.0379C171.18 69.1429 171.235 69.273 171.235 69.4284C171.235 69.5795 171.18 69.7096 171.075 69.8146C170.971 69.9237 170.84 69.9783 170.689 69.9783C170.538 69.9783 170.412 69.9237 170.303 69.8146C170.198 69.7054 170.144 69.5795 170.144 69.4284C170.144 69.273 170.198 69.1471 170.303 69.0379C170.412 68.933 170.538 68.8784 170.689 68.8784Z" fill="#515251"/>
<path d="M173.141 65.2262H172.679L172.583 63.1776H173.237L173.141 65.2262ZM174.862 65.2262H174.404L174.308 63.1776H174.963L174.862 65.2262Z" fill="#515251"/>
<path d="M49.4109 38.7625C49.3816 39.9841 49.1633 41.0252 48.7435 41.8815C48.3279 42.7421 47.6604 43.5733 46.7453 44.3793C47.6604 45.1853 48.3279 46.0165 48.7435 46.8771C49.1591 47.7377 49.3816 48.7787 49.4109 49.9961C49.4109 51.2177 49.1843 52.368 48.7225 53.451C48.2607 54.5341 47.6352 55.4744 46.8292 56.2805C46.0232 57.0865 45.0829 57.7161 43.9998 58.1737C42.9167 58.6313 41.7665 58.8622 40.5449 58.8622H36.263H31.5613H25.1553V29.9006H31.5613H37.8036H40.5491C41.7707 29.9006 42.9209 30.1315 44.004 30.5891C45.0871 31.0467 46.0274 31.6764 46.8334 32.4824C47.6394 33.2884 48.2691 34.2287 48.7267 35.3118C49.1843 36.3906 49.4109 37.5409 49.4109 38.7625ZM43.0049 38.7625C43.0049 38.095 42.7698 37.5283 42.2954 37.0581C41.8253 36.5879 41.2418 36.3487 40.5491 36.3487H31.5613V41.1763H40.5491C41.2418 41.1763 41.8253 40.9412 42.2954 40.471C42.7698 39.9967 43.0049 39.4257 43.0049 38.7625ZM43.0049 49.9752C43.0049 49.3161 42.7698 48.7578 42.2954 48.3044C41.8253 47.851 41.2418 47.6243 40.5491 47.6243H31.5613V52.41H40.5491C41.2418 52.41 41.8253 52.1749 42.2954 51.7089C42.7698 51.2387 43.0049 50.6636 43.0049 49.9752Z" fill="#243B79"/>
<path d="M76.2107 58.8579H69.7627V49.2447H60.1075V58.8579H53.6594V29.9384H60.1075V42.7966H69.7627V29.9384H76.2107V58.8579Z" fill="#243B79"/>
<path d="M100.092 58.858H87.1922H83.9892H80.7861V36.3487V29.9006H87.1922H100.092V36.3487H87.1922V41.1343H100.092V47.5823H87.1922V52.41H100.092V58.858Z" fill="#243B79"/>
<path d="M136.354 29.8962V46.5411C136.354 48.2328 136.027 49.828 135.376 51.3267C134.725 52.8254 133.844 54.1267 132.736 55.2392C131.627 56.3474 130.313 57.229 128.802 57.8797C127.291 58.5303 125.687 58.8578 123.995 58.8578C122.274 58.8578 120.666 58.5303 119.168 57.8797C117.669 57.229 116.368 56.3474 115.255 55.2392C114.147 54.1309 113.266 52.8254 112.615 51.3267C111.964 49.828 111.637 48.2328 111.637 46.5411V29.8962H118.085V46.5117C118.085 47.3135 118.236 48.0775 118.542 48.7953C118.849 49.5174 119.273 50.1471 119.81 50.6844C120.352 51.2259 120.977 51.6457 121.682 51.9522C122.392 52.2586 123.16 52.4098 123.991 52.4098C124.797 52.4098 125.557 52.2586 126.279 51.9522C127.001 51.6499 127.631 51.2259 128.172 50.6844C128.714 50.1429 129.138 49.5132 129.44 48.7953C129.747 48.0775 129.898 47.3135 129.898 46.5117V29.8962H136.354Z" fill="#263A7F"/>
<path d="M164.245 58.8578L146.769 43.8796V58.8578H140.321V29.8962L157.839 44.8745V29.8962H164.245V58.8578Z" fill="#263A7F"/>
<path d="M174.681 58.8578H168.275V29.8962H174.681V58.8578Z" fill="#263A7F"/>
</svg>
