<svg width="224" height="72" viewBox="0 0 224 72" fill="none" xmlns="http://www.w3.org/2000/svg">
<path d="M94.6532 64.6871H94.2648C93.747 64.6871 93.3586 64.295 93.3586 63.7722V13.0633C93.3586 12.5405 93.747 12.1484 94.2648 12.1484H94.6532C95.171 12.1484 95.5594 12.5405 95.5594 13.0633V63.7722C95.5594 64.295 95.171 64.6871 94.6532 64.6871Z" fill="#F57E2A"/>
<path d="M34.0689 33.1901L5.20068 11.8871V48.6118L12.4501 43.1227V28.3544L25.5249 38.0257L5.20068 53.4475V64.8178L39.7648 37.5029L34.0689 33.1901Z" fill="#F57E2A"/>
<path d="M89.4751 48.3505C88.4395 35.4118 76.1414 34.2356 76.1414 34.2356H69.2803C66.8207 33.3207 65.1378 32.2752 64.2316 28.7465C62.9371 22.2118 69.2803 20.6435 69.2803 20.6435H81.3195L87.2744 11.8871H69.2803C54.1342 14.893 55.1699 27.5703 55.6877 30.9683C59.1829 42.0772 68.3741 42.7306 68.3741 42.7306H75.3646C79.1188 42.992 80.9311 47.1742 80.9311 49.2653C81.0606 55.0158 75.3646 56.0613 75.3646 56.0613H52.8397V24.3029V11.8871L33.9395 30.8376L41.0594 36.196L44.2957 33.4514V64.8178H52.8397H75.3646C87.9216 63.5109 89.8634 52.5326 89.4751 48.3505Z" fill="#2C2D71"/>
<path d="M29.4085 7.18213L19.1816 11.6257H20.8645V17.3762C20.8645 17.3762 20.2173 17.7683 20.8645 18.4217V18.5524C20.8645 18.5524 19.8289 19.7287 20.8645 20.1207V20.2514H21.1234H21.3824V19.99C22.418 19.598 21.3824 18.4217 21.3824 18.4217V18.291C22.0296 17.7683 21.3824 17.2455 21.3824 17.2455V11.6257H21.1234H22.9358L23.7125 14.3702C23.7125 14.3702 25.5249 13.9782 25.266 15.6772C25.0071 16.8534 24.6187 20.3821 28.7612 21.8198C30.0558 22.2118 36.0106 21.5584 34.3277 15.1544C34.0688 14.2396 34.8455 13.5861 35.7517 13.9782L36.5284 11.1029L39.6353 10.8415L29.4085 7.18213Z" fill="black"/>
<path d="M107.598 64.5564C106.304 64.5564 105.268 64.4257 104.362 64.0336C103.456 63.6415 102.809 63.1187 102.42 62.4653C102.032 61.8118 101.773 61.1583 101.644 60.5049C101.644 60.3742 101.644 60.2435 101.773 60.2435C101.902 60.1128 101.902 60.1128 102.032 60.1128H103.974C104.103 60.1128 104.233 60.1128 104.362 60.2435C104.492 60.3742 104.492 60.3742 104.621 60.5049C104.75 60.7663 104.88 61.0276 105.139 61.289C105.398 61.5504 105.657 61.8118 106.045 61.9425C106.433 62.0732 106.951 62.2039 107.598 62.2039C108.634 62.2039 109.281 62.0732 109.799 61.6811C110.317 61.289 110.576 60.897 110.576 60.3742C110.576 59.9821 110.446 59.59 110.188 59.4593C109.929 59.1979 109.54 58.9366 109.022 58.8059C108.505 58.5445 107.728 58.4138 106.822 58.1524C105.786 57.891 104.88 57.6296 104.233 57.2375C103.585 56.8455 103.068 56.4534 102.679 55.9306C102.291 55.4078 102.161 54.7544 102.161 53.8395C102.161 53.0554 102.42 52.2712 102.809 51.6177C103.197 50.9643 103.844 50.4415 104.621 50.1801C105.398 49.788 106.433 49.6573 107.469 49.6573C108.375 49.6573 109.152 49.788 109.799 50.0494C110.446 50.3108 111.094 50.5722 111.482 50.9643C112 51.3564 112.259 51.7484 112.518 52.2712C112.777 52.6633 112.906 53.1861 112.906 53.5781C112.906 53.7088 112.906 53.8395 112.777 53.8395C112.647 53.9702 112.647 53.9702 112.518 53.9702H110.576C110.446 53.9702 110.317 53.9702 110.188 53.8395C110.058 53.8395 109.929 53.7088 109.929 53.5781C109.799 53.1861 109.54 52.794 109.152 52.4019C108.634 52.1405 108.116 51.8791 107.34 51.8791C106.563 51.8791 106.045 52.0098 105.527 52.2712C105.009 52.5326 104.88 52.9247 104.88 53.5781C104.88 53.9702 105.009 54.2316 105.268 54.493C105.527 54.7544 105.916 55.0158 106.433 55.1465C106.951 55.4078 107.598 55.5385 108.505 55.7999C109.67 56.0613 110.705 56.3227 111.353 56.7148C112.129 57.1069 112.647 57.4989 113.035 58.0217C113.424 58.5445 113.553 59.1979 113.553 60.1128C113.553 61.0276 113.294 61.8118 112.777 62.4653C112.259 63.1187 111.611 63.6415 110.705 64.0336C109.799 64.295 108.764 64.5564 107.598 64.5564Z" fill="#F57E2A"/>
<path d="M122.615 64.5564C121.321 64.5564 120.285 64.295 119.379 63.9029C118.473 63.5108 117.825 62.8573 117.307 61.9425C116.79 61.1583 116.531 60.1128 116.531 58.9366C116.531 58.4138 116.531 57.7603 116.531 57.1069C116.531 56.4534 116.531 55.7999 116.531 55.2771C116.531 54.1009 116.79 53.0554 117.307 52.2712C117.825 51.3564 118.473 50.7029 119.379 50.3108C120.285 49.9187 121.321 49.6573 122.615 49.6573C123.521 49.6573 124.427 49.788 125.204 50.0494C125.981 50.3108 126.628 50.7029 127.146 51.095C127.664 51.487 128.052 52.0098 128.311 52.6633C128.57 53.3168 128.699 53.8395 128.829 54.6237C128.829 54.7544 128.829 54.8851 128.699 54.8851C128.57 55.0158 128.441 55.0158 128.441 55.0158H126.499C126.369 55.0158 126.24 55.0158 126.11 54.8851C125.981 54.7544 125.981 54.6237 125.851 54.493C125.593 53.5781 125.204 52.9247 124.686 52.6633C124.169 52.2712 123.521 52.1405 122.615 52.1405C121.709 52.1405 120.932 52.4019 120.414 52.9247C119.897 53.4474 119.508 54.3623 119.508 55.5385C119.508 56.7148 119.508 57.891 119.508 59.0673C119.508 60.2435 119.897 61.1583 120.414 61.6811C120.932 62.2039 121.709 62.4653 122.615 62.4653C123.392 62.4653 124.039 62.3346 124.686 61.9425C125.204 61.5504 125.593 61.0276 125.851 60.1128C125.851 59.8514 125.981 59.7207 126.11 59.7207C126.24 59.59 126.369 59.59 126.499 59.59H128.441C128.57 59.59 128.699 59.59 128.699 59.7207C128.829 59.8514 128.829 59.8514 128.829 59.9821C128.829 60.6356 128.699 61.289 128.311 61.9425C128.052 62.596 127.664 62.988 127.146 63.5108C126.628 63.9029 125.981 64.295 125.204 64.5564C124.427 64.4257 123.521 64.5564 122.615 64.5564Z" fill="#F57E2A"/>
<path d="M132.712 64.2949C132.583 64.2949 132.453 64.2949 132.324 64.1642C132.195 64.0335 132.195 63.9029 132.195 63.7722V50.0494C132.195 49.9187 132.195 49.788 132.324 49.6573C132.453 49.5266 132.583 49.5266 132.712 49.5266H134.654C134.784 49.5266 134.913 49.5266 135.043 49.6573C135.172 49.788 135.172 49.9187 135.172 50.0494V55.4078H141.256V50.0494C141.256 49.9187 141.256 49.788 141.386 49.6573C141.515 49.5266 141.645 49.5266 141.774 49.5266H143.586C143.716 49.5266 143.845 49.5266 143.975 49.6573C144.104 49.788 144.104 49.9187 144.104 50.0494V63.7722C144.104 63.9029 144.104 64.0335 143.975 64.1642C143.845 64.2949 143.716 64.2949 143.586 64.2949H141.774C141.645 64.2949 141.515 64.2949 141.386 64.1642C141.256 64.0335 141.256 63.9029 141.256 63.7722V58.1524H135.172V63.7722C135.172 63.9029 135.172 64.0335 135.043 64.1642C134.913 64.2949 134.784 64.2949 134.654 64.2949H132.712Z" fill="#F57E2A"/>
<path d="M154.072 64.5563C152.778 64.5563 151.742 64.295 150.836 63.9029C149.93 63.5108 149.283 62.8573 148.765 61.9425C148.247 61.0276 147.988 59.9821 147.988 58.6752C147.988 58.0217 147.988 57.4989 147.988 56.8455C147.988 56.192 147.988 55.6692 147.988 55.0158C147.988 53.7088 148.247 52.6633 148.765 51.8791C149.283 50.9643 149.93 50.4415 150.836 49.9187C151.742 49.5266 152.778 49.2653 153.943 49.2653C155.108 49.2653 156.144 49.5266 157.05 49.9187C157.956 50.3108 158.603 50.9643 159.121 51.8791C159.639 52.794 159.898 53.8395 159.898 55.0158C159.898 55.6692 159.898 56.192 159.898 56.8455C159.898 57.4989 159.898 58.0217 159.898 58.6752C159.898 59.9821 159.639 61.0276 159.121 61.9425C158.603 62.8573 157.956 63.3801 157.05 63.9029C156.144 64.4257 155.367 64.5563 154.072 64.5563ZM154.072 62.0732C154.979 62.0732 155.755 61.8118 156.273 61.289C156.791 60.7662 157.179 59.8514 157.179 58.6752C157.179 58.0217 157.179 57.4989 157.179 56.9761C157.179 56.4534 157.179 55.9306 157.179 55.2771C157.179 54.493 157.05 53.8395 156.791 53.3167C156.532 52.794 156.144 52.4019 155.755 52.1405C155.237 51.8791 154.72 51.7484 154.202 51.7484C153.555 51.7484 153.037 51.8791 152.648 52.1405C152.131 52.4019 151.872 52.794 151.613 53.3167C151.354 53.8395 151.224 54.493 151.224 55.2771C151.224 55.9306 151.224 56.4534 151.224 56.9761C151.224 57.4989 151.224 58.0217 151.224 58.6752C151.224 59.8514 151.613 60.7662 152.131 61.289C152.519 61.8118 153.166 62.0732 154.072 62.0732Z" fill="#F57E2A"/>
<path d="M169.607 64.5563C168.312 64.5563 167.277 64.295 166.37 63.9029C165.464 63.5108 164.817 62.8573 164.299 61.9425C163.781 61.0276 163.522 59.9821 163.522 58.6752C163.522 58.0217 163.522 57.4989 163.522 56.8455C163.522 56.192 163.522 55.6692 163.522 55.0158C163.522 53.7088 163.781 52.6633 164.299 51.8791C164.817 50.9643 165.464 50.4415 166.37 49.9187C167.277 49.5266 168.312 49.2653 169.477 49.2653C170.642 49.2653 171.678 49.5266 172.584 49.9187C173.49 50.3108 174.138 50.9643 174.655 51.8791C175.173 52.794 175.432 53.8395 175.432 55.0158C175.432 55.6692 175.432 56.192 175.432 56.8455C175.432 57.4989 175.432 58.0217 175.432 58.6752C175.432 59.9821 175.173 61.0276 174.655 61.9425C174.138 62.8573 173.49 63.3801 172.584 63.9029C171.678 64.4257 170.901 64.5563 169.607 64.5563ZM169.607 62.0732C170.513 62.0732 171.29 61.8118 171.807 61.289C172.325 60.7662 172.714 59.8514 172.714 58.6752C172.714 58.0217 172.714 57.4989 172.714 56.9761C172.714 56.4534 172.714 55.9306 172.714 55.2771C172.714 54.493 172.584 53.8395 172.325 53.3167C172.066 52.794 171.678 52.4019 171.29 52.1405C170.772 51.8791 170.254 51.7484 169.736 51.7484C169.089 51.7484 168.571 51.8791 168.183 52.1405C167.665 52.4019 167.406 52.794 167.147 53.3167C166.888 53.8395 166.759 54.493 166.759 55.2771C166.759 55.9306 166.759 56.4534 166.759 56.9761C166.759 57.4989 166.759 58.0217 166.759 58.6752C166.759 59.8514 167.147 60.7662 167.665 61.289C168.053 61.8118 168.701 62.0732 169.607 62.0732Z" fill="#F57E2A"/>
<path d="M179.963 64.2949C179.834 64.2949 179.704 64.2949 179.575 64.1642C179.445 64.0335 179.445 63.9029 179.445 63.7722V50.0494C179.445 49.9187 179.445 49.788 179.575 49.6573C179.704 49.5266 179.834 49.5266 179.963 49.5266H181.905C182.034 49.5266 182.164 49.5266 182.293 49.6573C182.423 49.788 182.423 49.9187 182.423 50.0494V61.8118H189.025C189.154 61.8118 189.284 61.8118 189.413 61.9425C189.543 62.0731 189.543 62.2038 189.543 62.3345V63.7722C189.543 63.9029 189.543 64.0335 189.413 64.1642C189.284 64.2949 189.154 64.2949 189.025 64.2949H179.963Z" fill="#F57E2A"/>
<path d="M102.55 27.1782C102.42 27.1782 102.291 27.1782 102.161 27.0475C102.032 26.9168 102.032 26.7862 102.032 26.6555V12.9327C102.032 12.802 102.032 12.6713 102.161 12.5406C102.291 12.4099 102.42 12.4099 102.55 12.4099H107.598C109.022 12.4099 110.188 12.6713 111.094 13.0634C112 13.4555 112.647 14.1089 113.165 15.0238C113.683 15.9386 113.812 16.9842 113.942 18.1604C113.942 18.8139 113.942 19.3366 113.942 19.8594C113.942 20.3822 113.942 20.905 113.942 21.4277C113.942 22.7347 113.683 23.7802 113.294 24.6951C112.906 25.4792 112.129 26.1327 111.353 26.5248C110.446 26.9168 109.281 27.1782 107.987 27.1782H102.55ZM105.009 24.6951H107.728C108.505 24.6951 109.152 24.5644 109.67 24.303C110.188 24.0416 110.576 23.7802 110.705 23.2574C110.964 22.7347 111.094 22.0812 111.094 21.297C111.094 20.905 111.094 20.5129 111.094 20.2515C111.094 19.9901 111.094 19.598 111.094 19.3366C111.094 19.0753 111.094 18.6832 111.094 18.2911C111.094 17.1149 110.835 16.3307 110.188 15.8079C109.67 15.2852 108.764 15.0238 107.598 15.0238H105.009V24.6951Z" fill="#2C2D71"/>
<path d="M117.178 27.1782C117.049 27.1782 116.919 27.1782 116.79 27.0475C116.66 26.9168 116.66 26.7862 116.66 26.6555V12.9327C116.66 12.802 116.66 12.6713 116.79 12.5406C116.919 12.4099 117.049 12.4099 117.178 12.4099H119.12C119.249 12.4099 119.379 12.4099 119.508 12.5406C119.638 12.6713 119.638 12.802 119.638 12.9327V26.6555C119.638 26.7862 119.638 26.9168 119.508 27.0475C119.379 27.1782 119.249 27.1782 119.12 27.1782H117.178Z" fill="#2C2D71"/>
<path d="M128.57 27.3089C127.275 27.3089 126.24 27.0475 125.334 26.6554C124.427 26.2633 123.78 25.6099 123.262 24.695C122.745 23.9109 122.486 22.8653 122.486 21.6891C122.486 21.0356 122.486 20.3821 122.486 19.7287C122.486 19.0752 122.486 18.4217 122.486 17.7683C122.486 16.592 122.745 15.6772 123.262 14.7623C123.78 13.9782 124.427 13.3247 125.334 12.8019C126.24 12.4099 127.275 12.2792 128.57 12.2792C129.606 12.2792 130.512 12.4099 131.288 12.6713C132.065 12.9326 132.712 13.3247 133.23 13.7168C133.748 14.1089 134.136 14.6317 134.395 15.1544C134.654 15.6772 134.784 16.0693 134.784 16.4614C134.784 16.592 134.784 16.7227 134.654 16.7227C134.525 16.7227 134.395 16.8534 134.266 16.8534H132.065C131.936 16.8534 131.806 16.8534 131.806 16.7227C131.677 16.7227 131.677 16.592 131.677 16.4614C131.547 16.2 131.418 15.9386 131.159 15.5465C130.9 15.2851 130.641 15.0237 130.253 14.7623C129.735 14.7623 129.217 14.6316 128.57 14.6316C127.664 14.6316 126.887 14.893 126.369 15.4158C125.851 15.9386 125.463 16.7227 125.463 17.899C125.463 19.0752 125.463 20.3821 125.463 21.5584C125.463 22.7346 125.851 23.6495 126.369 24.1722C126.887 24.695 127.664 24.9564 128.699 24.9564C129.347 24.9564 129.864 24.8257 130.382 24.5643C130.9 24.3029 131.288 24.0416 131.547 23.5188C131.806 22.996 131.936 22.4732 131.936 21.6891V21.0356H129.347C129.217 21.0356 129.088 21.0356 128.958 20.9049C128.829 20.7742 128.829 20.6435 128.829 20.5128V19.3366C128.829 19.2059 128.829 19.0752 128.958 18.9445C129.088 18.8138 129.217 18.8138 129.347 18.8138H134.266C134.395 18.8138 134.525 18.8138 134.654 18.9445C134.784 19.0752 134.784 19.2059 134.784 19.3366V21.5584C134.784 22.7346 134.525 23.7802 134.007 24.5643C133.489 25.4792 132.842 26.1326 131.806 26.5247C130.9 27.0475 129.864 27.3089 128.57 27.3089Z" fill="#2C2D71"/>
<path d="M138.02 27.1782C137.891 27.1782 137.761 27.1782 137.632 27.0475C137.502 26.9168 137.502 26.7862 137.502 26.6555V12.9327C137.502 12.802 137.502 12.6713 137.632 12.5406C137.761 12.4099 137.891 12.4099 138.02 12.4099H139.962C140.091 12.4099 140.221 12.4099 140.35 12.5406C140.48 12.6713 140.48 12.802 140.48 12.9327V26.6555C140.48 26.7862 140.48 26.9168 140.35 27.0475C140.221 27.1782 140.091 27.1782 139.962 27.1782H138.02Z" fill="#2C2D71"/>
<path d="M147.341 27.1782C147.211 27.1782 147.082 27.1782 146.953 27.0475C146.823 26.9168 146.823 26.7862 146.823 26.6555V15.0238H142.939C142.81 15.0238 142.681 15.0238 142.551 14.8931C142.422 14.7624 142.422 14.6317 142.422 14.501V12.9327C142.422 12.802 142.422 12.6713 142.551 12.5406C142.681 12.4099 142.81 12.4099 142.939 12.4099H153.555C153.684 12.4099 153.814 12.4099 153.943 12.5406C154.072 12.6713 154.072 12.802 154.072 12.9327V14.501C154.072 14.6317 154.072 14.7624 153.943 14.8931C153.814 15.0238 153.684 15.0238 153.555 15.0238H149.671V26.6555C149.671 26.7862 149.671 26.9168 149.542 27.0475C149.412 27.1782 149.283 27.1782 149.153 27.1782H147.341Z" fill="#2C2D71"/>
<path d="M153.813 27.1782C153.684 27.1782 153.555 27.1782 153.555 27.0475C153.425 26.9168 153.425 26.9168 153.425 26.7861V26.6554L158.474 13.0633C158.474 12.9326 158.603 12.8019 158.733 12.6712C158.862 12.5405 158.992 12.5405 159.25 12.5405H161.451C161.71 12.5405 161.84 12.5405 161.969 12.6712C162.098 12.8019 162.098 12.9326 162.228 13.0633L167.277 26.6554C167.277 26.7861 167.277 26.7861 167.277 26.7861C167.277 26.9168 167.277 27.0475 167.147 27.0475C167.018 27.0475 167.018 27.1782 166.888 27.1782H165.076C164.817 27.1782 164.688 27.1782 164.688 27.0475C164.558 26.9168 164.558 26.9168 164.558 26.7861L163.522 24.1722H157.309L156.273 26.7861C156.273 26.9168 156.144 26.9168 156.144 27.0475C156.014 27.1782 155.885 27.1782 155.755 27.1782H153.813ZM157.956 21.8197H162.616L160.286 15.2851L157.956 21.8197Z" fill="#2C2D71"/>
<path d="M169.607 27.1782C169.477 27.1782 169.348 27.1782 169.219 27.0475C169.089 26.9168 169.089 26.7862 169.089 26.6555V12.9327C169.089 12.802 169.089 12.6713 169.219 12.5406C169.348 12.4099 169.477 12.4099 169.607 12.4099H171.549C171.678 12.4099 171.808 12.4099 171.937 12.5406C172.067 12.6713 172.067 12.802 172.067 12.9327V24.5644H178.669C178.798 24.5644 178.928 24.5644 179.057 24.6951C179.186 24.8258 179.187 24.9564 179.187 25.0871V26.5248C179.187 26.6555 179.186 26.7861 179.057 26.9168C178.928 27.0475 178.798 27.0475 178.669 27.0475H169.607V27.1782Z" fill="#2C2D71"/>
<path d="M102.679 45.7366C102.55 45.7366 102.42 45.7366 102.291 45.6059C102.161 45.4752 102.161 45.3445 102.161 45.2138V31.491C102.161 31.3603 102.161 31.2296 102.291 31.099C102.42 30.9683 102.55 30.9683 102.679 30.9683H104.362C104.492 30.9683 104.75 30.9683 104.75 31.099C104.88 31.2296 104.88 31.2296 104.88 31.3603L108.893 38.9405L112.906 31.3603C112.906 31.3603 113.035 31.2296 113.035 31.099C113.165 30.9683 113.294 30.9683 113.424 30.9683H115.107C115.236 30.9683 115.366 30.9683 115.495 31.099C115.625 31.2296 115.625 31.3603 115.625 31.491V45.2138C115.625 45.3445 115.625 45.4752 115.495 45.6059C115.366 45.7366 115.236 45.7366 115.107 45.7366H113.424C113.294 45.7366 113.165 45.7366 113.035 45.6059C112.906 45.4752 112.906 45.3445 112.906 45.2138V36.0653L110.058 41.6851C109.929 41.8158 109.929 41.9465 109.799 41.9465C109.67 42.0772 109.54 42.0772 109.411 42.0772H108.505C108.246 42.0772 108.116 42.0772 108.116 41.9465C107.987 41.8158 107.987 41.6851 107.857 41.6851L105.009 36.0653V45.2138C105.009 45.3445 105.009 45.4752 104.88 45.6059C104.75 45.7366 104.621 45.7366 104.492 45.7366H102.679Z" fill="#2C2D71"/>
<path d="M118.084 45.7366C117.955 45.7366 117.825 45.7366 117.825 45.6059C117.696 45.4752 117.696 45.4752 117.696 45.3445V45.2138L122.744 31.6218C122.744 31.4911 122.874 31.3604 123.003 31.2297C123.133 31.099 123.262 31.099 123.521 31.099H125.722C125.981 31.099 126.11 31.099 126.24 31.2297C126.369 31.3604 126.369 31.4911 126.499 31.6218L131.547 45.2138C131.547 45.3445 131.547 45.3445 131.547 45.3445C131.547 45.4752 131.547 45.6059 131.418 45.6059C131.288 45.6059 131.288 45.7366 131.159 45.7366H129.347C129.088 45.7366 128.958 45.7366 128.958 45.6059C128.829 45.4752 128.829 45.4752 128.829 45.3445L127.793 42.7307H121.579L120.544 45.3445C120.544 45.4752 120.414 45.4752 120.414 45.6059C120.285 45.7366 120.155 45.7366 120.026 45.7366H118.084ZM122.227 40.2475H126.887L124.557 33.7129L122.227 40.2475Z" fill="#2C2D71"/>
<path d="M133.878 45.7366C133.748 45.7366 133.619 45.7366 133.489 45.6059C133.36 45.4752 133.36 45.3445 133.36 45.2138V31.491C133.36 31.3603 133.36 31.2296 133.489 31.099C133.619 30.9683 133.748 30.9683 133.878 30.9683H139.315C140.998 30.9683 142.292 31.3603 143.328 32.1445C144.234 32.9287 144.752 34.1049 144.752 35.5425C144.752 36.5881 144.493 37.5029 143.975 38.1564C143.457 38.8098 142.81 39.3326 141.904 39.594L144.881 44.9524C144.881 45.0831 144.881 45.0831 144.881 45.2138C144.881 45.3445 144.881 45.4752 144.752 45.4752C144.622 45.4752 144.622 45.6059 144.493 45.6059H142.551C142.292 45.6059 142.163 45.6059 142.033 45.4752C141.904 45.3445 141.774 45.2138 141.774 45.0831L139.056 40.1168H136.208V45.2138C136.208 45.3445 136.208 45.4752 136.078 45.6059C135.949 45.7366 135.819 45.7366 135.69 45.7366H133.878ZM136.208 37.7643H139.185C140.091 37.7643 140.609 37.6336 141.127 37.2415C141.515 36.8495 141.774 36.3267 141.774 35.6732C141.774 35.0197 141.515 34.3663 141.127 33.9742C140.739 33.5821 140.091 33.3207 139.185 33.3207H136.208V37.7643Z" fill="#2C2D71"/>
<path d="M147.859 45.7366C147.729 45.7366 147.6 45.7366 147.47 45.6059C147.341 45.4752 147.341 45.3445 147.341 45.2138V31.491C147.341 31.3603 147.341 31.2296 147.47 31.099C147.6 30.9683 147.729 30.9683 147.859 30.9683H149.671C149.8 30.9683 149.93 30.9683 150.059 31.099C150.189 31.2296 150.189 31.3603 150.189 31.491V36.4574L154.849 31.3603C154.849 31.2296 154.979 31.2296 155.108 31.099C155.237 30.9683 155.367 30.9683 155.626 30.9683H157.697C157.827 30.9683 157.956 30.9683 157.956 31.099C158.085 31.2296 158.085 31.2296 158.085 31.3603C158.085 31.491 158.085 31.491 157.956 31.6217L152.26 37.895L158.344 44.8217C158.474 44.9524 158.474 44.9524 158.474 45.0831C158.474 45.2138 158.474 45.3445 158.344 45.3445C158.215 45.4752 158.215 45.4752 158.085 45.4752H155.885C155.626 45.4752 155.496 45.4752 155.367 45.3445C155.237 45.2138 155.108 45.2138 155.108 45.0831L150.059 39.4633V44.9524C150.059 45.0831 150.059 45.2138 149.93 45.3445C149.8 45.4752 149.671 45.4752 149.542 45.4752H147.859V45.7366Z" fill="#2C2D71"/>
<path d="M160.933 45.7366C160.804 45.7366 160.674 45.7366 160.545 45.6059C160.416 45.4752 160.416 45.3445 160.416 45.2138V31.491C160.416 31.3603 160.416 31.2296 160.545 31.099C160.674 30.9683 160.804 30.9683 160.933 30.9683H170.125C170.254 30.9683 170.383 30.9683 170.513 31.099C170.642 31.2296 170.642 31.3603 170.642 31.491V32.9287C170.642 33.0594 170.642 33.19 170.513 33.3207C170.383 33.4514 170.254 33.4514 170.125 33.4514H163.264V37.1108H169.607C169.736 37.1108 169.866 37.1108 169.995 37.2415C170.125 37.3722 170.125 37.5029 170.125 37.6336V38.9405C170.125 39.0712 170.125 39.2019 169.995 39.3326C169.866 39.4633 169.736 39.4633 169.607 39.4633H163.264V43.2534H170.254C170.383 43.2534 170.513 43.2534 170.642 43.3841C170.772 43.5148 170.772 43.6455 170.772 43.7762V45.2138C170.772 45.3445 170.772 45.4752 170.642 45.6059C170.513 45.7366 170.383 45.7366 170.254 45.7366H160.933Z" fill="#2C2D71"/>
<path d="M177.115 45.7366C176.986 45.7366 176.856 45.7366 176.727 45.6059C176.597 45.4752 176.597 45.3445 176.597 45.2138V33.5821H172.714C172.584 33.5821 172.455 33.5821 172.325 33.4514C172.196 33.3207 172.196 33.19 172.196 33.0594V31.491C172.196 31.3603 172.196 31.2296 172.325 31.099C172.455 30.9683 172.584 30.9683 172.714 30.9683H183.329C183.458 30.9683 183.588 30.9683 183.717 31.099C183.847 31.2296 183.847 31.3603 183.847 31.491V33.0594C183.847 33.19 183.847 33.3207 183.717 33.4514C183.588 33.5821 183.458 33.5821 183.329 33.5821H179.445V45.2138C179.445 45.3445 179.445 45.4752 179.316 45.6059C179.186 45.7366 179.057 45.7366 178.927 45.7366H177.115Z" fill="#2C2D71"/>
<path d="M186.436 45.7366C186.306 45.7366 186.177 45.7366 186.047 45.6059C185.918 45.4752 185.918 45.3445 185.918 45.2138V31.491C185.918 31.3603 185.918 31.2296 186.047 31.099C186.177 30.9683 186.306 30.9683 186.436 30.9683H188.378C188.507 30.9683 188.636 30.9683 188.766 31.099C188.895 31.2296 188.895 31.3603 188.895 31.491V45.2138C188.895 45.3445 188.895 45.4752 188.766 45.6059C188.636 45.7366 188.507 45.7366 188.378 45.7366H186.436Z" fill="#2C2D71"/>
<path d="M192.65 45.7366C192.52 45.7366 192.391 45.7366 192.261 45.6059C192.132 45.4752 192.132 45.3445 192.132 45.2138V31.491C192.132 31.3603 192.132 31.2296 192.261 31.099C192.391 30.9683 192.52 30.9683 192.65 30.9683H194.203C194.333 30.9683 194.591 30.9683 194.591 31.099C194.721 31.2296 194.721 31.2296 194.721 31.3603L200.676 40.7702V31.6217C200.676 31.491 200.676 31.3603 200.805 31.2296C200.935 31.099 201.064 31.099 201.194 31.099H202.876C203.006 31.099 203.135 31.099 203.265 31.2296C203.394 31.3603 203.394 31.491 203.394 31.6217V45.2138C203.394 45.3445 203.394 45.4752 203.265 45.6059C203.135 45.7366 203.006 45.7366 202.876 45.7366H201.194C200.935 45.7366 200.805 45.7366 200.805 45.6059C200.676 45.4752 200.676 45.4752 200.676 45.4752L194.721 36.3267V45.3445C194.721 45.4752 194.721 45.6059 194.591 45.7366C194.462 45.8673 194.333 45.8673 194.203 45.8673H192.65V45.7366Z" fill="#2C2D71"/>
<path d="M212.586 45.8673C211.291 45.8673 210.255 45.6059 209.349 45.2138C208.443 44.8218 207.796 44.1683 207.278 43.2534C206.76 42.4693 206.501 41.4237 206.501 40.2475C206.501 39.594 206.501 38.9406 206.501 38.2871C206.501 37.6336 206.501 36.9802 206.501 36.3267C206.501 35.1505 206.76 34.2356 207.278 33.3208C207.796 32.5366 208.443 31.8831 209.349 31.3604C210.255 30.9683 211.291 30.7069 212.586 30.7069C213.621 30.7069 214.527 30.8376 215.304 31.099C216.081 31.3604 216.728 31.7525 217.246 32.1445C217.764 32.5366 218.152 33.0594 218.411 33.5822C218.67 34.1049 218.799 34.497 218.799 34.8891C218.799 35.0198 218.799 35.1505 218.67 35.1505C218.54 35.1505 218.411 35.2812 218.282 35.2812H216.081C215.951 35.2812 215.822 35.2812 215.822 35.1505C215.692 35.1505 215.692 35.0198 215.692 34.8891C215.563 34.6277 215.434 34.3663 215.175 33.9742C214.916 33.7128 214.657 33.4515 214.268 33.1901C213.88 33.0594 213.362 32.9287 212.715 32.9287C211.809 32.9287 211.032 33.1901 210.514 33.7128C209.996 34.2356 209.608 35.0198 209.608 36.196C209.608 37.3723 209.608 38.6792 209.608 39.8554C209.608 41.0317 209.996 41.9465 210.514 42.4693C211.032 42.9921 211.809 43.2534 212.844 43.2534C213.492 43.2534 214.01 43.1227 214.527 42.8614C215.045 42.6 215.434 42.3386 215.692 41.8158C215.951 41.293 216.081 40.7703 216.081 39.9861V39.594H213.492C213.362 39.594 213.233 39.594 213.103 39.4633C212.974 39.3327 212.974 39.202 212.974 39.0713V37.895C212.974 37.7643 212.974 37.6336 213.103 37.5029C213.233 37.3723 213.362 37.3723 213.492 37.3723H218.411C218.54 37.3723 218.67 37.3723 218.799 37.5029C218.929 37.6336 218.929 37.7643 218.929 37.895V40.1168C218.929 41.293 218.67 42.3386 218.152 43.1228C217.634 44.0376 216.987 44.6911 215.951 45.0831C214.916 45.6059 213.751 45.8673 212.586 45.8673Z" fill="#2C2D71"/>
</svg>
