<svg width="40" height="40" viewBox="0 0 40 40" fill="none" xmlns="http://www.w3.org/2000/svg">
<g clip-path="url(#clip0_1023_517)">
<path d="M7.30996 4.31812C5.85262 4.31812 4.66699 5.50335 4.66699 6.96007C4.66699 8.41679 5.85262 9.60202 7.30996 9.60202C8.76848 9.60202 9.95512 8.41679 9.95512 6.96007C9.95512 5.50335 8.76848 4.31812 7.30996 4.31812ZM7.30996 8.0264C6.72145 8.0264 6.2427 7.54804 6.2427 6.96007C6.2427 6.3721 6.72145 5.89382 7.30996 5.89382C7.89965 5.89382 8.37949 6.37218 8.37949 6.96015C8.37949 7.54812 7.89965 8.0264 7.30996 8.0264Z" fill="white"/>
<path d="M30.4187 4.31812H23.432C21.9747 4.31812 20.7891 5.50335 20.7891 6.96007C20.7891 8.41679 21.9747 9.60202 23.432 9.60202H30.4187C31.876 9.60202 33.0616 8.41679 33.0616 6.96007C33.0616 5.50335 31.876 4.31812 30.4187 4.31812ZM30.4187 8.0264H23.432C22.8435 8.0264 22.3648 7.54804 22.3648 6.96007C22.3648 6.3721 22.8436 5.89374 23.432 5.89374H30.4187C31.0072 5.89374 31.4859 6.3721 31.4859 6.96007C31.4859 7.54804 31.0072 8.0264 30.4187 8.0264Z" fill="white"/>
<path d="M14.1586 4.31812C12.7013 4.31812 11.5156 5.50335 11.5156 6.96007C11.5156 8.41679 12.7013 9.60202 14.1586 9.60202C15.6171 9.60202 16.8038 8.41679 16.8038 6.96007C16.8038 5.50335 15.6171 4.31812 14.1586 4.31812ZM14.1586 8.0264C13.5701 8.0264 13.0913 7.54804 13.0913 6.96007C13.0913 6.3721 13.5702 5.89374 14.1586 5.89374C14.7483 5.89374 15.2281 6.3721 15.2281 6.96007C15.2281 7.54804 14.7483 8.0264 14.1586 8.0264Z" fill="white"/>
<path d="M12.8739 17.3785C12.4509 17.2772 12.0257 17.5384 11.9246 17.9616L10.3616 24.5021C10.2605 24.9253 10.5215 25.3504 10.9447 25.4515C11.0063 25.4662 11.0679 25.4733 11.1285 25.4733C11.4847 25.4733 11.8077 25.23 11.8941 24.8684L13.4571 18.3279C13.5582 17.9047 13.2971 17.4797 12.8739 17.3785Z" fill="white"/>
<path d="M15.7668 24.6827C15.917 24.8164 16.1042 24.8822 16.2906 24.8822C16.5075 24.8822 16.7235 24.7931 16.8792 24.6184L19.0885 22.1384C19.453 21.7326 19.453 21.0971 19.0907 20.6939L16.8792 18.2113C16.5896 17.8863 16.0916 17.8577 15.7668 18.147C15.4418 18.4365 15.4131 18.9345 15.7025 19.2594L17.6226 21.4148L15.7025 23.5702C15.4131 23.8952 15.4419 24.3933 15.7668 24.6827Z" fill="white"/>
<path d="M8.05242 18.1473C7.72742 17.8578 7.22953 17.8868 6.94008 18.2116L4.73109 20.6913C4.36609 21.0972 4.36609 21.733 4.72859 22.136L6.94016 24.6186C7.09586 24.7934 7.3118 24.8824 7.52883 24.8824C7.71524 24.8824 7.9025 24.8166 8.05258 24.6829C8.37758 24.3934 8.40633 23.8954 8.11688 23.5705L6.1968 21.4152L8.11688 19.2597C8.40617 18.9347 8.37742 18.4366 8.05242 18.1473Z" fill="white"/>
<path d="M38.2337 26.526H37.9412C37.788 26.0298 37.5895 25.5507 37.3473 25.0929L37.556 24.8834C37.8894 24.5521 38.0734 24.1097 38.0741 23.6376C38.0748 23.1645 37.8914 22.7203 37.5577 22.3866L37.1509 21.9801V5.1989C37.1509 2.84897 35.4927 0.937256 33.4542 0.937256H3.69672C1.65828 0.937256 0 2.84897 0 5.1989V27.2187C0 29.5686 1.65828 31.4803 3.69672 31.4803H8.31906C8.75414 31.4803 9.10687 31.1276 9.10687 30.6925C9.10687 30.2574 8.75414 29.9047 8.31906 29.9047H3.69672C2.54703 29.9047 1.5757 28.6746 1.5757 27.2187V12.9255H35.5752V20.8868C35.4854 20.873 35.3945 20.8639 35.3019 20.8639C35.3009 20.8639 35.3 20.8639 35.2991 20.8639C34.8271 20.8647 34.3847 21.0484 34.0559 21.379L33.843 21.591C33.3755 21.3441 32.8887 21.1432 32.3868 20.9898V20.7092C32.3868 19.7355 31.5944 18.9433 30.6205 18.9433H29.1948C28.222 18.9433 27.4307 19.7355 27.4307 20.7092V21.0091C26.9382 21.1638 26.4627 21.363 26.0081 21.6048L25.8041 21.4014C25.4727 21.0684 25.0302 20.8844 24.5581 20.8837C24.5573 20.8837 24.5564 20.8837 24.5555 20.8837C24.0834 20.8837 23.6401 21.0669 23.307 21.3998L22.2998 22.4066C21.966 22.7401 21.7827 23.1844 21.7834 23.6575C21.7841 24.1295 21.968 24.5719 22.2988 24.9007L22.5164 25.1189C22.2802 25.5697 22.0862 26.0399 21.9362 26.5258H21.637C20.6641 26.5258 19.8728 27.3169 19.8728 28.2894V29.7166C19.8728 29.78 19.8763 29.8426 19.8829 29.9044H15.2989C14.8638 29.9044 14.5111 30.2571 14.5111 30.6922C14.5111 31.1273 14.8638 31.48 15.2989 31.48H21.6369H21.9391C22.0915 31.9705 22.2884 32.4445 22.5287 32.8983L22.3158 33.1102C21.6304 33.7993 21.631 34.918 22.3174 35.6038L23.3252 36.6112C23.6566 36.9443 24.0991 37.1282 24.5712 37.1289H24.5737C25.0459 37.1289 25.4892 36.9457 25.8223 36.6128L26.0333 36.4019C26.4911 36.6433 26.9671 36.8405 27.4571 36.9919V37.2969C27.4571 38.2706 28.2484 39.0627 29.2212 39.0627H30.6491C31.6219 39.0627 32.4132 38.2706 32.4132 37.2969V36.9938C32.9078 36.8412 33.3858 36.6433 33.843 36.4019L34.0531 36.6112C34.3845 36.9443 34.8269 37.1281 35.2989 37.1289H35.3016C35.7737 37.1289 36.217 36.9457 36.5507 36.6123L37.5558 35.6055C37.8891 35.2741 38.0731 34.8317 38.0738 34.3597C38.0745 33.8866 37.8912 33.4423 37.5573 33.1087L37.3471 32.8985C37.5869 32.4444 37.7837 31.9701 37.9358 31.4801H38.2335C39.2075 31.4801 39.9998 30.689 39.9998 29.7166V28.2894C40 27.3171 39.2077 26.526 38.2337 26.526ZM1.5757 11.3498V5.1989C1.5757 3.74304 2.54703 2.51296 3.69672 2.51296H33.4542C34.6039 2.51296 35.5752 3.74304 35.5752 5.1989V11.3498L1.5757 11.3498ZM38.4243 29.7167C38.4243 29.8168 38.3352 29.9045 38.2336 29.9045H37.3327C36.9653 29.9045 36.6467 30.1584 36.5647 30.5164C36.3945 31.259 36.1023 31.9632 35.6959 32.6097C35.5002 32.921 35.5459 33.3263 35.8061 33.5862L36.4436 34.2234C36.4912 34.271 36.4983 34.3279 36.4983 34.3576C36.4982 34.393 36.489 34.4445 36.443 34.4901L35.4364 35.4985C35.3887 35.5462 35.3317 35.5533 35.3017 35.5533C35.3016 35.5533 35.3016 35.5533 35.3016 35.5533C35.2658 35.5533 35.2141 35.5441 35.168 35.4976L34.5281 34.8604C34.2679 34.6012 33.8634 34.5563 33.5527 34.7516C32.9052 35.1589 32.198 35.4516 31.4506 35.6217C31.0921 35.7034 30.8377 36.0222 30.8377 36.39V37.2971C30.8377 37.3984 30.7496 37.4873 30.6493 37.4873H29.2214C29.121 37.4873 29.033 37.3984 29.033 37.2971V36.3877C29.033 36.0196 28.778 35.7005 28.4189 35.6193C27.681 35.4524 26.9751 35.1601 26.3209 34.7508C26.192 34.6701 26.0471 34.6307 25.9031 34.6307C25.6996 34.6307 25.4979 34.7094 25.3459 34.8614L24.7085 35.4985C24.6608 35.5462 24.6038 35.5533 24.5738 35.5533C24.5737 35.5533 24.5737 35.5533 24.5736 35.5533C24.5379 35.5533 24.4862 35.5441 24.4409 35.4986L23.4315 34.4896C23.3608 34.419 23.3616 34.2938 23.4305 34.2244L24.0703 33.5873C24.3317 33.3269 24.3774 32.9202 24.1805 32.6083C23.7735 31.964 23.4809 31.2602 23.3105 30.5166C23.2285 30.1586 22.9099 29.9047 22.5425 29.9047H21.637C21.5349 29.9047 21.4486 29.8187 21.4486 29.7169V28.2898C21.4486 28.188 21.5349 28.1019 21.637 28.1019H22.5402C22.908 28.1019 23.2269 27.8474 23.3085 27.4889C23.4766 26.7501 23.7655 26.0492 24.1672 25.4056C24.3611 25.0949 24.3153 24.6916 24.0566 24.4322L23.4121 23.7858C23.3684 23.7423 23.3591 23.6908 23.3591 23.6554C23.3591 23.6257 23.3661 23.5688 23.4137 23.5212L24.4209 22.5145C24.4687 22.4669 24.5256 22.4597 24.5556 22.4597H24.5559C24.5916 22.4598 24.6433 22.469 24.6895 22.5155L25.3248 23.1483C25.5858 23.4082 25.9918 23.4527 26.3026 23.2555C26.9463 22.8474 27.6514 22.5518 28.3981 22.377C28.7544 22.2937 29.0063 21.9758 29.0063 21.6099V20.7094C29.0063 20.6064 29.0926 20.5193 29.1947 20.5193H30.6204C30.7237 20.5193 30.8111 20.6064 30.8111 20.7094V21.5966C30.8111 21.9658 31.0673 22.2854 31.4277 22.3656C32.1773 22.5326 32.8925 22.8274 33.5534 23.242C33.8639 23.4367 34.268 23.3917 34.528 23.1328L35.1705 22.493C35.2141 22.4491 35.2657 22.4399 35.3014 22.4398H35.3016C35.3316 22.4398 35.3886 22.447 35.4362 22.4947L36.4435 23.5013C36.4912 23.549 36.4982 23.6058 36.4982 23.6355C36.4981 23.671 36.4889 23.7225 36.4426 23.7685L35.805 24.408C35.5454 24.6683 35.5004 25.0737 35.6966 25.3846C36.1044 26.0312 36.3979 26.7394 36.5688 27.4892C36.6505 27.8476 36.9693 28.1019 37.337 28.1019H38.2336C38.3352 28.1019 38.4243 28.1898 38.4243 28.2898V29.7167Z" fill="white"/>
<path d="M29.9368 24.1917C27.2819 24.1917 25.1221 26.3506 25.1221 29.0042C25.1221 31.6566 27.2819 33.8146 29.9368 33.8146C32.5904 33.8146 34.7493 31.6567 34.7493 29.0042C34.7493 26.3506 32.5904 24.1917 29.9368 24.1917ZM29.9368 32.2389C28.1508 32.2389 26.6978 30.7878 26.6978 29.0042C26.6978 27.2194 28.1508 25.7674 29.9368 25.7674C31.7215 25.7674 33.1736 27.2194 33.1736 29.0042C33.1736 30.7878 31.7214 32.2389 29.9368 32.2389Z" fill="white"/>
<path d="M11.8326 29.9045H11.8171C11.382 29.9045 11.0293 30.2573 11.0293 30.6924C11.0293 31.1274 11.382 31.4802 11.8171 31.4802H11.8326C12.2677 31.4802 12.6204 31.1274 12.6204 30.6924C12.6204 30.2573 12.2677 29.9045 11.8326 29.9045Z" fill="white"/>
</g>
<defs>
<clipPath id="clip0_1023_517">
<rect width="40" height="40" fill="white"/>
</clipPath>
</defs>
</svg>
