<svg width="40" height="40" viewBox="0 0 40 40" fill="none" xmlns="http://www.w3.org/2000/svg">
<path d="M36.6438 26.0561L31.9813 23.3686L36.6438 20.6749C36.7618 20.6061 36.8597 20.5076 36.9278 20.3891C36.9958 20.2707 37.0317 20.1365 37.0317 19.9999C37.0317 19.8633 36.9958 19.7291 36.9278 19.6106C36.8597 19.4922 36.7618 19.3937 36.6438 19.3249L31.9875 16.6311L36.6188 13.9561C36.7497 13.8885 36.8583 13.7843 36.9313 13.6561C36.983 13.5675 37.0168 13.4695 37.0306 13.3679C37.0445 13.2662 37.0382 13.1627 37.0121 13.0635C36.9859 12.9642 36.9405 12.8711 36.8784 12.7894C36.8163 12.7077 36.7387 12.6391 36.65 12.5874L20.4 3.21239C20.2808 3.14502 20.1463 3.10962 20.0094 3.10962C19.8725 3.10962 19.7379 3.14502 19.6188 3.21239L3.36876 12.5874C3.24926 12.6557 3.14996 12.7545 3.08089 12.8736C3.01182 12.9926 2.97545 13.1279 2.97545 13.2655C2.97545 13.4032 3.01182 13.5384 3.08089 13.6575C3.14996 13.7766 3.24926 13.8753 3.36876 13.9436L8.02501 16.6311L3.36251 19.3249C3.24448 19.3937 3.14655 19.4922 3.07849 19.6106C3.01043 19.7291 2.97461 19.8633 2.97461 19.9999C2.97461 20.1365 3.01043 20.2707 3.07849 20.3891C3.14655 20.5076 3.24448 20.6061 3.36251 20.6749L8.02501 23.3686L3.36876 26.0561C3.24926 26.1245 3.14996 26.2232 3.08089 26.3423C3.01182 26.4614 2.97545 26.5966 2.97545 26.7343C2.97545 26.8719 3.01182 27.0071 3.08089 27.1262C3.14996 27.2453 3.24926 27.344 3.36876 27.4124L19.6188 36.7874C19.7362 36.8489 19.8675 36.8791 20 36.8749C20.1382 36.8738 20.2738 36.8372 20.3938 36.7686L36.6438 27.3936C36.7617 27.324 36.8594 27.2249 36.9273 27.1059C36.9952 26.987 37.0309 26.8524 37.0309 26.7155C37.0309 26.5786 36.9952 26.444 36.9273 26.3251C36.8594 26.2062 36.7617 26.107 36.6438 26.0374V26.0561ZM5.31251 19.9999L9.58126 17.5374L19.5813 23.3249C19.6987 23.394 19.8325 23.4307 19.9688 23.4311C20.1069 23.4301 20.2425 23.3935 20.3625 23.3249L30.3625 17.5374L34.6875 19.9999L20 28.4811L5.31251 19.9999ZM20 35.2124L5.31251 26.7374L9.58126 24.2374L19.5813 30.0249C19.6986 30.0942 19.8325 30.1307 19.9688 30.1307C20.1051 30.1307 20.2389 30.0942 20.3563 30.0249L30.3875 24.2374L34.6563 26.7374L20 35.2124Z" fill="white"/>
</svg>
