<svg width="40" height="40" viewBox="0 0 40 40" fill="none" xmlns="http://www.w3.org/2000/svg">
<g clip-path="url(#clip0_1023_588)">
<path d="M35.3086 0H4.69141C2.10453 0 0 2.10453 0 4.69141V35.3086C0 37.8955 2.10453 40 4.69141 40H35.3086C37.8955 40 40 37.8955 40 35.3086V4.69141C40 2.10453 37.8955 0 35.3086 0ZM4.69141 2.34375H35.3086C36.6031 2.34375 37.6562 3.39687 37.6562 4.69141V9.375H2.34375V4.69141C2.34375 3.39687 3.39687 2.34375 4.69141 2.34375ZM35.3086 37.6562H4.69141C3.39687 37.6562 2.34375 36.6031 2.34375 35.3086V11.7188H37.6562V35.3086C37.6562 36.6031 36.6031 37.6562 35.3086 37.6562Z" fill="white"/>
<path d="M15.2344 7.03125H34.1406C34.7878 7.03125 35.3125 6.50656 35.3125 5.85938C35.3125 5.21219 34.7878 4.6875 34.1406 4.6875H15.2344C14.5872 4.6875 14.0625 5.21219 14.0625 5.85938C14.0625 6.50656 14.5872 7.03125 15.2344 7.03125Z" fill="white"/>
<path d="M5.85938 7.03125C6.50658 7.03125 7.03125 6.50658 7.03125 5.85938C7.03125 5.21217 6.50658 4.6875 5.85938 4.6875C5.21217 4.6875 4.6875 5.21217 4.6875 5.85938C4.6875 6.50658 5.21217 7.03125 5.85938 7.03125Z" fill="white"/>
<path d="M10.5469 7.03125C11.1941 7.03125 11.7188 6.50658 11.7188 5.85938C11.7188 5.21217 11.1941 4.6875 10.5469 4.6875C9.89967 4.6875 9.375 5.21217 9.375 5.85938C9.375 6.50658 9.89967 7.03125 10.5469 7.03125Z" fill="white"/>
<path d="M27.5207 18.1378H12.8446L12.0848 14.9618C11.9667 14.4454 11.4747 14.0572 10.9451 14.0626H6.51465C5.86746 14.0626 5.34277 14.5872 5.34277 15.2344C5.34277 15.8816 5.86746 16.4063 6.51465 16.4063H10.0205L13.2133 29.6698C12.7627 30.2608 12.4943 30.998 12.4943 31.7969C12.4943 33.7354 14.0714 35.3126 16.01 35.3126C17.9485 35.3126 19.5256 33.7354 19.5256 31.7969C19.5256 31.3855 19.4539 30.9908 19.3235 30.6235H23.7121C23.5817 30.9907 23.51 31.3855 23.51 31.7969C23.51 33.7354 25.0871 35.3126 27.0256 35.3126C28.9641 35.3126 30.5412 33.7354 30.5412 31.7969C30.5412 30.8017 30.1249 29.9025 29.458 29.2622L31.34 23.3661C31.7335 22.1335 31.5214 20.827 30.7582 19.7821C29.9947 18.7371 28.8147 18.1378 27.5207 18.1378ZM27.5207 20.4815C28.0582 20.4815 28.5484 20.7305 28.8655 21.1646C29.1826 21.5986 29.2707 22.1413 29.1072 22.6534L27.3113 28.2798H15.2882L13.8447 22.3194C13.8445 22.3184 13.8444 22.3175 13.8442 22.3165L13.4053 20.4816H27.5207V20.4815ZM16.0099 32.9688C15.3637 32.9688 14.838 32.4431 14.838 31.7969C14.838 31.1508 15.3637 30.6251 16.0099 30.6251C16.6561 30.6251 17.1818 31.1508 17.1818 31.7969C17.1818 32.4431 16.6561 32.9688 16.0099 32.9688ZM27.0255 32.9688C26.3793 32.9688 25.8536 32.4431 25.8536 31.7969C25.8536 31.1508 26.3793 30.6251 27.0255 30.6251C27.6717 30.6251 28.1974 31.1508 28.1974 31.7969C28.1974 32.4431 27.6717 32.9688 27.0255 32.9688Z" fill="white"/>
</g>
<defs>
<clipPath id="clip0_1023_588">
<rect width="40" height="40" fill="white"/>
</clipPath>
</defs>
</svg>
