<svg width="40" height="40" viewBox="0 0 40 40" fill="none" xmlns="http://www.w3.org/2000/svg">
<g clip-path="url(#clip0_1023_620)">
<path d="M38.9745 23.1207C39.2158 23.0279 39.375 22.796 39.375 22.5374V17.4624C39.375 17.2038 39.2158 16.972 38.9745 16.8791L36.1717 15.8002C35.7837 14.3027 35.1902 12.871 34.4041 11.536L35.6239 8.78961C35.7289 8.55328 35.6775 8.2768 35.4947 8.09398L31.9059 4.50547C31.7231 4.32266 31.4467 4.27133 31.2103 4.37617L28.4627 5.59641C27.1274 4.81016 25.6963 4.21688 24.1999 3.82906L23.1208 1.02547C23.0279 0.784219 22.796 0.625 22.5374 0.625H17.4624C17.2038 0.625 16.972 0.784219 16.8791 1.02547L15.8002 3.82836C15.2201 3.97883 14.6459 4.16148 14.0845 4.37398C12.8697 2.14266 10.503 0.625 7.78852 0.625C7.02656 0.625 6.27531 0.744609 5.55586 0.980391C5.34945 1.04805 5.19305 1.21797 5.14258 1.42922C5.09211 1.64047 5.155 1.86273 5.30859 2.01625L9.70203 6.40969L9.00633 9.00625L6.40977 9.70187L2.01625 5.30859C1.86266 5.155 1.64047 5.09219 1.42914 5.14258C1.21789 5.19305 1.04805 5.34945 0.980391 5.55586C0.744609 6.27539 0.625 7.02656 0.625 7.78852C0.625 9.70195 1.37008 11.5009 2.72305 12.8538C3.21859 13.3494 3.77445 13.7625 4.37344 14.0882C4.16141 14.6485 3.97914 15.2214 3.82914 15.8001L1.02547 16.8792C0.784219 16.9721 0.625 17.2039 0.625 17.4625V22.5375C0.625 22.7961 0.784219 23.0279 1.02547 23.1208L3.82828 24.1996C4.21617 25.697 4.80969 27.1286 5.59602 28.4638L4.37617 31.2103C4.27117 31.4466 4.32258 31.7231 4.50539 31.9059L8.09406 35.4945C8.27687 35.6773 8.55344 35.7287 8.78969 35.6238L11.5371 34.4036C12.8724 35.1898 14.3035 35.7832 15.8 36.171L16.8791 38.9746C16.972 39.2159 17.2038 39.3751 17.4624 39.3751H22.5373C22.7959 39.3751 23.0277 39.2159 23.1206 38.9746L24.1998 36.1709C25.2008 35.9113 26.1762 35.5566 27.1127 35.1152C27.9633 37.5905 30.313 39.375 33.0732 39.375C36.548 39.375 39.375 36.548 39.375 33.0732C39.375 30.3131 37.5906 27.9635 35.1155 27.113C35.5568 26.1765 35.9116 25.2009 36.1712 24.1998L38.9745 23.1207ZM27.6972 23.2344C26.7852 20.9725 24.9155 19.2295 22.6068 18.4705C23.7549 17.653 24.5059 16.3123 24.5059 14.7987C24.5059 12.3141 22.4846 10.2928 20 10.2928C18.5699 10.2928 17.2943 10.9633 16.4683 12.0055L15.3758 10.913C16.8014 10.1869 18.3843 9.80516 20.0001 9.80516C25.6216 9.80516 30.1951 14.3786 30.1951 20.0001C30.1951 21.6159 29.8133 23.1987 29.0872 24.6244L27.6972 23.2344ZM10.9128 15.3758L15.1488 19.6117C13.2931 20.9452 12.0071 23.0319 11.747 25.4629C11.728 25.6392 11.785 25.8152 11.9035 25.9471C12.022 26.079 12.191 26.1544 12.3684 26.1544H21.6913L24.6241 29.0872C23.1985 29.8133 21.6157 30.1951 20 30.1951C14.3784 30.1951 9.80492 25.6216 9.80492 19.9999C9.805 18.3841 10.1868 16.8013 10.9128 15.3758ZM13.0984 24.9044C13.7703 21.6672 16.6236 19.3045 20 19.3045C23.3764 19.3045 26.2297 21.6672 26.9016 24.9044H13.0984ZM20 11.5427C21.7953 11.5427 23.2559 13.0033 23.2559 14.7986C23.2559 16.5939 21.7953 18.0545 20 18.0545C18.2047 18.0545 16.7441 16.594 16.7441 14.7987C16.7441 13.0034 18.2048 11.5427 20 11.5427ZM1.875 7.78852C1.875 7.51984 1.89297 7.25281 1.92875 6.98883L5.78102 10.841C5.93891 10.9989 6.16906 11.0606 6.38469 11.0028L9.67836 10.1204C9.89406 10.0626 10.0625 9.89414 10.1203 9.67844L11.0028 6.38469C11.0606 6.16898 10.9989 5.93891 10.841 5.78102L6.98883 1.92875C7.25273 1.89297 7.51977 1.875 7.78852 1.875C11.0492 1.875 13.702 4.52781 13.702 7.78844C13.702 8.56242 13.5545 9.31531 13.2635 10.0262C13.1681 10.2592 13.222 10.5268 13.4 10.7048L15.8184 13.1232C15.6099 13.6415 15.4941 14.2066 15.4941 14.7986C15.4941 16.3123 16.2451 17.6529 17.3932 18.4704C16.998 18.6003 16.6158 18.759 16.249 18.9442L10.7048 13.4C10.5268 13.222 10.2593 13.168 10.0261 13.2635C9.31523 13.5545 8.56234 13.702 7.78836 13.702C6.20883 13.702 4.72375 13.0868 3.60687 11.9699C2.49 10.853 1.875 9.36805 1.875 7.78852ZM23.5888 35.0348C23.3884 35.0826 23.2243 35.226 23.1503 35.4184L22.1084 38.125H17.8916L16.8498 35.4183C16.7759 35.226 16.6118 35.0825 16.4112 35.0348C14.8202 34.6561 13.3053 34.028 11.9085 33.168C11.733 33.0599 11.5154 33.0454 11.3272 33.129L8.67461 34.3071L5.69281 31.3254L6.87055 28.6737C6.95422 28.4854 6.93961 28.2678 6.83148 28.0923C5.97141 26.6959 5.3432 25.1805 4.96445 23.5885C4.91672 23.388 4.77328 23.2239 4.58094 23.1499L1.875 22.1084V17.8916L4.58164 16.8498C4.77398 16.7758 4.91742 16.6116 4.96516 16.4112C5.11195 15.794 5.29883 15.1823 5.52211 14.5855C6.24352 14.8253 7.00609 14.952 7.78852 14.952C8.50672 14.952 9.21 14.8459 9.8875 14.638C9.01453 16.2827 8.555 18.1218 8.555 19.9999C8.555 26.3108 13.6892 31.4451 20.0001 31.4451C21.9494 31.4451 23.8566 30.9499 25.5482 30.0112L26.9837 31.4466C26.8427 31.9752 26.7714 32.5207 26.7714 33.0733C26.7714 33.3428 26.7904 33.6078 26.8234 33.8684C25.7917 34.3768 24.7059 34.769 23.5888 35.0348ZM38.125 33.0732C38.125 35.8588 35.8588 38.125 33.0732 38.125C30.2877 38.125 28.0214 35.8588 28.0214 33.0732C28.0214 32.5237 28.1091 31.9833 28.2821 31.4671C28.3574 31.2423 28.2991 30.9942 28.1314 30.8266L23.4591 26.1543H27.6315C27.8088 26.1543 27.9778 26.079 28.0963 25.947C28.193 25.8395 28.2479 25.7023 28.2548 25.5598L30.8265 28.1314C30.9941 28.2991 31.2423 28.3573 31.467 28.2821C31.9831 28.1091 32.5235 28.0214 33.0732 28.0214C35.8588 28.0214 38.1249 30.2877 38.125 33.0732ZM35.0351 23.5887C34.7692 24.7059 34.3771 25.7919 33.8687 26.8234C33.6079 26.7903 33.3427 26.7713 33.0731 26.7713C32.5205 26.7713 31.975 26.8427 31.4465 26.9836L30.0111 25.5482C30.9498 23.8566 31.445 21.9492 31.445 19.9998C31.445 13.6891 26.3108 8.55492 20 8.55492C18.1219 8.55492 16.2827 9.01437 14.638 9.88742C14.8459 9.20992 14.9519 8.50664 14.9519 7.78844C14.9519 6.99656 14.8224 6.23445 14.5841 5.52172C15.1811 5.29836 15.7934 5.11141 16.4113 4.96437C16.6118 4.91664 16.7759 4.7732 16.8499 4.58086L17.8916 1.875H22.1084L23.1502 4.58164C23.2241 4.77398 23.3882 4.91742 23.5888 4.96516C25.1798 5.34383 26.6947 5.97187 28.0914 6.83187C28.267 6.94 28.4844 6.95453 28.6727 6.87094L31.3255 5.69281L34.3073 8.67461L33.1295 11.3262C33.0459 11.5146 33.0605 11.7321 33.1686 11.9077C34.0284 13.3038 34.6566 14.8192 35.0356 16.4116C35.0834 16.612 35.2268 16.7762 35.4191 16.8502L38.125 17.8916V22.1084L35.4186 23.1501C35.2263 23.2241 35.0828 23.3882 35.0351 23.5887ZM30.3203 30.7623L29.5337 33.6981C29.4759 33.9138 29.5376 34.144 29.6955 34.3019L31.8446 36.451C31.9634 36.5698 32.123 36.6341 32.2866 36.6341C32.3405 36.6341 32.3948 36.6271 32.4483 36.6128L35.3841 35.8262C35.5998 35.7684 35.7683 35.5999 35.8261 35.3842L36.6127 32.4484C36.6705 32.2327 36.6088 32.0026 36.4509 31.8447L34.3018 29.6955C34.1439 29.5377 33.914 29.4761 33.698 29.5338L30.7622 30.3203C30.5466 30.3781 30.378 30.5466 30.3203 30.7623ZM31.4343 31.4343L33.673 30.8345L35.3119 32.4734L34.712 34.7121L32.4733 35.312L30.8344 33.6731L31.4343 31.4343Z" fill="white"/>
</g>
<defs>
<clipPath id="clip0_1023_620">
<rect width="40" height="40" fill="white"/>
</clipPath>
</defs>
</svg>
