<svg width="40" height="40" viewBox="0 0 40 40" fill="none" xmlns="http://www.w3.org/2000/svg">
<path fill-rule="evenodd" clip-rule="evenodd" d="M12.6609 20.2375C12.7883 24.1805 16.0258 27.3383 20 27.3383C23.9742 27.3383 27.2109 24.1805 27.3391 20.2375C27.3414 20.1719 27.3188 20.1141 27.2734 20.0672C27.2273 20.0195 27.1711 19.9961 27.1047 19.9961H12.8961C12.8305 19.9961 12.7734 20.0203 12.7273 20.0672C12.6813 20.1148 12.6594 20.1719 12.6617 20.2375H12.6609ZM21.3672 2.61719C21.3672 1.86016 20.7547 1.25 20 1.25C19.2453 1.25 18.6328 1.8625 18.6328 2.61719C18.6328 3.23672 19.0445 3.75938 19.6094 3.92734V19.2148H20.3906V3.92734C20.9531 3.75938 21.3672 3.2375 21.3672 2.61719ZM31.2984 8.21484C31.2984 7.45781 30.6859 6.84766 29.9312 6.84766C29.3117 6.84766 28.7891 7.25938 28.6211 7.82422H25.282C25.0664 7.82422 24.8914 7.99922 24.8914 8.21484V19.2148H25.6727V8.60547H28.6211C28.7891 9.17031 29.3125 9.58203 29.9312 9.58203C30.682 9.58203 31.2984 8.97188 31.2984 8.21484ZM8.70156 8.21484C8.70156 7.45781 9.31406 6.84766 10.0688 6.84766C10.6883 6.84766 11.2109 7.25938 11.3789 7.82422H14.718C14.9336 7.82422 15.1086 7.99922 15.1086 8.21484V19.2148H14.3273V8.60547H11.3789C11.2109 9.17031 10.6875 9.58203 10.0688 9.58203C9.31797 9.58203 8.70156 8.97188 8.70156 8.21484ZM38.75 14.4648C38.75 13.7078 38.1375 13.0977 37.3828 13.0977C36.7633 13.0977 36.2406 13.5094 36.0727 14.0742H32.7336C32.518 14.0742 32.343 14.2492 32.343 14.4648V19.2148H33.1242V14.8555H36.0727C36.2406 15.4203 36.7641 15.832 37.3828 15.832C38.1336 15.832 38.75 15.2219 38.75 14.4648ZM1.25 14.4648C1.25 13.7078 1.8625 13.0977 2.61719 13.0977C3.23672 13.0977 3.75938 13.5094 3.92734 14.0742H7.26641C7.48203 14.0742 7.65703 14.2492 7.65703 14.4648V19.2148H6.87578V14.8555H3.92734C3.75938 15.4203 3.23594 15.832 2.61719 15.832C1.86641 15.832 1.25 15.2219 1.25 14.4648ZM20 29.4977C25.1711 29.4977 29.3773 25.3672 29.4984 20.225C29.5016 20.0977 29.6055 19.9961 29.7328 19.9961H38.3594C38.5797 19.9961 38.7547 20.175 38.75 20.3953C38.7391 20.918 38.7063 21.4352 38.6531 21.9469C38.5516 22.9234 37.793 23.6742 36.8156 23.7648L34.1047 24.0164C32.6266 24.1539 31.9156 25.8891 32.8727 27.0242L34.6273 29.1039C35.2602 29.8547 35.275 30.9211 34.6625 31.6883C33.818 32.7461 32.8609 33.7109 31.8102 34.5641C31.0477 35.1828 29.9805 35.1773 29.225 34.55L27.1305 32.8117C25.9875 31.8633 24.2586 32.5883 24.1328 34.0672L23.9023 36.7805C23.8195 37.7594 23.0742 38.5242 22.0977 38.6328C20.7547 38.7828 19.393 38.7875 18.0492 38.6484C17.0727 38.5469 16.3219 37.7883 16.2312 36.8109L15.9797 34.1C15.8422 32.6219 14.107 31.9109 12.9719 32.868L10.8922 34.6227C10.1414 35.2555 9.075 35.2703 8.30781 34.6578C7.25 33.8133 6.28516 32.8562 5.43203 31.8055C4.81328 31.043 4.81875 29.9758 5.44609 29.2203L7.18437 27.1258C8.13281 25.9828 7.40781 24.2539 5.92891 24.1281L3.21562 23.8977C2.23672 23.8148 1.47188 23.0695 1.36328 22.093C1.30078 21.5336 1.26328 20.9664 1.25156 20.393C1.24688 20.1727 1.42188 19.9937 1.64219 19.9937H10.2688C10.3961 19.9937 10.5 20.0953 10.5031 20.2227C10.625 25.3648 14.8312 29.4953 20.0016 29.4953L20 29.4977Z" fill="white"/>
</svg>
